<svg width="778" height="67" viewBox="0 0 778 67" fill="none" xmlns="http://www.w3.org/2000/svg">
<path d="M752.171 29.2932C750.329 28.0114 748.758 26.3732 747.552 24.474C746.345 22.5749 745.526 20.4529 745.143 18.2318L743.993 10.6432C743.993 10.4726 743.925 10.309 743.805 10.1884C743.686 10.0678 743.523 10.0001 743.354 10.0001C743.171 9.9975 742.993 10.0609 742.852 10.1789C742.711 10.2968 742.617 10.4615 742.587 10.6432L741.437 18.2318C741.053 20.4529 740.234 22.5749 739.028 24.474C737.821 26.3732 736.25 28.0114 734.408 29.2932L733.386 29.8077C733.263 29.8937 733.163 30.0095 733.096 30.1443C733.029 30.2792 732.997 30.4287 733.002 30.5794V30.5794C732.991 30.7135 733.022 30.8477 733.091 30.963C733.16 31.0784 733.263 31.1691 733.386 31.2225L734.408 31.8656C736.262 33.1054 737.842 34.7158 739.052 36.5966C740.261 38.4774 741.073 40.5884 741.437 42.7984L742.587 50.5156C742.617 50.6973 742.711 50.862 742.852 50.9799C742.993 51.0979 743.171 51.1613 743.354 51.1587C743.523 51.1587 743.686 51.091 743.805 50.9704C743.925 50.8498 743.993 50.6862 743.993 50.5156L745.143 42.7984C745.507 40.5884 746.319 38.4774 747.528 36.5966C748.737 34.7158 750.318 33.1054 752.171 31.8656L753.194 31.2225C753.317 31.1691 753.42 31.0784 753.488 30.963C753.557 30.8477 753.588 30.7135 753.577 30.5794C753.583 30.4287 753.55 30.2792 753.483 30.1443C753.416 30.0095 753.317 29.8937 753.194 29.8077L752.171 29.2932Z" fill="#57F287"/>
<path d="M777.008 50.2335C775.711 49.2834 774.605 48.069 773.755 46.6613C772.905 45.2536 772.329 43.6807 772.059 42.0343L771.249 36.4094C771.249 36.2829 771.202 36.1617 771.117 36.0723C771.033 35.9829 770.918 35.9327 770.799 35.9327C770.67 35.9308 770.545 35.9778 770.446 36.0652C770.347 36.1526 770.281 36.2747 770.259 36.4094L769.449 42.0343C769.179 43.6807 768.603 45.2536 767.753 46.6613C766.903 48.069 765.797 49.2834 764.5 50.2335L763.78 50.6148C763.693 50.6786 763.623 50.7644 763.576 50.8644C763.529 50.9643 763.506 51.0752 763.51 51.1868V51.1868C763.502 51.2862 763.524 51.3857 763.572 51.4712C763.621 51.5567 763.693 51.624 763.78 51.6635L764.5 52.1402C765.805 53.0593 766.918 54.2529 767.77 55.647C768.621 57.0411 769.193 58.6059 769.449 60.244L770.259 65.9643C770.281 66.099 770.347 66.2211 770.446 66.3085C770.545 66.3959 770.67 66.4429 770.799 66.441C770.918 66.441 771.033 66.3908 771.117 66.3014C771.202 66.212 771.249 66.0908 771.249 65.9643L772.059 60.244C772.315 58.6059 772.887 57.0411 773.738 55.647C774.59 54.2529 775.703 53.0593 777.008 52.1402L777.728 51.6635C777.815 51.624 777.887 51.5567 777.936 51.4712C777.984 51.3857 778.006 51.2862 777.998 51.1868C778.002 51.0752 777.979 50.9643 777.932 50.8644C777.885 50.7644 777.815 50.6786 777.728 50.6148L777.008 50.2335Z" fill="#FFCDEE"/>
<path d="M28.1244 21.0081C30.1307 19.6124 31.8408 17.8286 33.1548 15.7606C34.4689 13.6926 35.3606 11.382 35.7779 8.96352L37.0303 0.700351C37.0303 0.514628 37.1036 0.336501 37.2341 0.205175C37.3646 0.073849 37.5415 8.20777e-05 37.7261 8.20777e-05C37.9254 -0.0027206 38.1191 0.0663347 38.2723 0.194767C38.4254 0.3232 38.5278 0.502535 38.561 0.700351L39.8134 8.96352C40.2307 11.382 41.1224 13.6926 42.4365 15.7606C43.7505 17.8286 45.4606 19.6124 47.4669 21.0081L48.5802 21.5684C48.7141 21.6621 48.8225 21.7881 48.8954 21.9349C48.9684 22.0818 49.0035 22.2446 48.9977 22.4087V22.4087C49.0096 22.5547 48.9757 22.7008 48.9008 22.8264C48.826 22.952 48.7138 23.0508 48.5802 23.1089L47.4669 23.8092C45.4483 25.1593 43.7272 26.9128 42.4106 28.9607C41.0939 31.0087 40.2099 33.3073 39.8134 35.7138L38.561 44.117C38.5278 44.3148 38.4254 44.4942 38.2723 44.6226C38.1191 44.751 37.9254 44.8201 37.7261 44.8173C37.5415 44.8173 37.3646 44.7435 37.2341 44.6122C37.1036 44.4809 37.0303 44.3027 37.0303 44.117L35.7779 35.7138C35.3814 33.3073 34.4974 31.0087 33.1807 28.9607C31.8641 26.9128 30.143 25.1593 28.1244 23.8092L27.0111 23.1089C26.8775 23.0508 26.7654 22.952 26.6905 22.8264C26.6156 22.7008 26.5817 22.5547 26.5937 22.4087C26.5878 22.2446 26.6229 22.0818 26.6959 21.9349C26.7688 21.7881 26.8772 21.6621 27.0111 21.5684L28.1244 21.0081Z" fill="#FEE75C"/>
<path d="M1.07967 43.8093C2.49248 42.7748 3.69668 41.4525 4.622 39.9197C5.54732 38.3868 6.17523 36.6741 6.4691 34.8814L7.35101 28.7564C7.35101 28.6188 7.40263 28.4867 7.49451 28.3894C7.5864 28.292 7.71102 28.2374 7.84096 28.2374C7.98131 28.2353 8.11773 28.2865 8.22556 28.3817C8.33339 28.4769 8.40552 28.6098 8.4289 28.7564L9.31081 34.8814C9.60468 36.6741 10.2326 38.3868 11.1579 39.9197C12.0832 41.4525 13.2874 42.7748 14.7002 43.8093L15.4842 44.2246C15.5785 44.2941 15.6548 44.3875 15.7062 44.4963C15.7575 44.6051 15.7823 44.7259 15.7781 44.8475V44.8475C15.7865 44.9557 15.7627 45.064 15.71 45.1571C15.6572 45.2502 15.5783 45.3235 15.4842 45.3665L14.7002 45.8856C13.2788 46.8863 12.0668 48.1861 11.1397 49.7041C10.2125 51.2221 9.58999 52.926 9.31081 54.7097L8.4289 60.9385C8.40552 61.0851 8.33339 61.2181 8.22556 61.3133C8.11773 61.4085 7.98131 61.4597 7.84096 61.4576C7.71102 61.4576 7.5864 61.4029 7.49451 61.3056C7.40263 61.2082 7.35101 61.0762 7.35101 60.9385L6.4691 54.7097C6.18992 52.926 5.56739 51.2221 4.64024 49.7041C3.71308 48.1861 2.50112 46.8863 1.07967 45.8856L0.295744 45.3665C0.201652 45.3235 0.122681 45.2502 0.0699463 45.1571C0.0172111 45.064 -0.00663099 44.9557 0.00177613 44.8475C-0.00236295 44.7259 0.0223855 44.6051 0.0737478 44.4963C0.12511 44.3875 0.20144 44.2941 0.295744 44.2246L1.07967 43.8093Z" fill="#8CD9FF"/>
</svg>
