<svg xmlns="http://www.w3.org/2000/svg" width="5000" height="400" fill="none"><g clip-path="url(#a)"><path fill="url(#b)" fill-rule="evenodd" d="M3357.69-73H1679.22V0H-157v400h5311.29V0h-1796.6z" clip-rule="evenodd"/><path fill="url(#c)" d="M2183.16-72c-167.15 131.404-568.23 541-568.23 541l202.09-541z"/><path fill="url(#d)" d="M2739.38-72c-275.23 181.123-692.15 472-692.15 472h-139.18l582.14-472z"/><path fill="url(#e)" d="M2921.98 31c-176.97 91.55-391.59 208.52-391.59 208.52C2587.47 188.493 2761.9 63.737 2830.16 31z"/><path fill="#7269FF" d="M2428.15 400.108c61.59-61.627 185.61-64.441 251.04-47.838 52.67-57.032 159.6-74.103 225.7-36.395 71.44 40.803 86.46 84.233 86.46 84.233z"/><path fill="#7269FF" d="M2314.55 342.045c-25.82-49.058-92.19-42.585-135.75-12.569-78.68-21.48-213.4 9.38-207.86 70.633h555.22c-22.81-57.595-142.79-85.454-211.61-58.064"/><path fill="#7A73FF" d="M2628.5 400.108c-15.68-24.951-63-36.207-98.11-29.453-17.18-32.831-70.13-51.028-108.91-14.633-35.01-3.096-81.39 8.442-85.8 44.086z"/><path fill="#8088FF" d="M2670.27 385.381h-177.34c23.28-10.693 64.03-12.85 83.74-6.378 26.95-13.414 68.82-13.789 93.6 6.378m-426.98-14.82h92.1c-20.74-8.911-63.56-8.254-92.1 0"/><path fill="url(#f)" d="M2669.24 112.326c59.43-47.557 95.48-71.101 95.48-71.101-45.34 8.348-72.2 34.706-95.48 71.101"/><path fill="url(#g)" d="M2320.75-73c-49.01 36.77-106.75 81.232-172 133.386 32.11-49.997 65.91-94.927 104.31-133.386z"/><path fill="#5047FF" d="m2753.83 77.431 4.32-1.97c.09 0 .09-.093 0-.187l-4.32-1.876h-.09l-1.97-4.409h-.19l-1.88 4.409a.1.1 0 0 0-.07.027.14.14 0 0 0-.02.067l-4.32 1.876c-.1.094-.1.187 0 .187l4.32 1.97h.09l1.88 4.409h.19l1.97-4.409z"/><path fill="#8088FF" d="m2658.45 322.535 4.41-1.876c.09-.094.09-.188 0-.188l-4.41-1.97-1.98-4.314c0-.094-.09-.094-.18 0l-1.88 4.314h-.1l-4.31 1.97c-.1 0-.1.094 0 .188l4.31 1.876h.1l1.88 4.315c.09.094.18.094.18 0z"/><path fill="#584FFF" d="M2217.1 56.326h-.28l-8.26 11.725v.282l8.26 11.725h.28c2.82-4.034 5.35-7.692 8.26-11.725v-.282c-2.91-4.033-5.44-7.691-8.26-11.725"/><path fill="#5047FF" d="m2241.04 84.373 2.72-1.22c.1 0 .1-.093 0-.093l-2.72-1.313-1.31-2.72c0-.094 0-.094-.1 0l-1.22 2.72-2.81 1.313 2.81 1.22 1.22 2.813h.1l1.31-2.814z"/></g><defs><linearGradient id="b" x1="2510" x2="2510" y1="-41.531" y2="470.499" gradientUnits="userSpaceOnUse"><stop stop-color="#4E1BF5"/><stop offset=".58" stop-color="#5E4EEE"/><stop offset=".92" stop-color="#6668EB"/></linearGradient><linearGradient id="c" x1="1892.58" x2="1929.2" y1="99.266" y2="-55.726" gradientUnits="userSpaceOnUse"><stop stop-color="#5521FF"/><stop offset="1" stop-color="#4B1AEB"/></linearGradient><linearGradient id="d" x1="2593.38" x2="2073.39" y1="-55.723" y2="339.849" gradientUnits="userSpaceOnUse"><stop stop-color="#5625F7"/><stop offset=".3" stop-color="#5930F9"/><stop offset=".81" stop-color="#624DFD"/><stop offset="1" stop-color="#6659FF"/></linearGradient><linearGradient id="e" x1="2843.6" x2="2556.49" y1="49.77" y2="230.488" gradientUnits="userSpaceOnUse"><stop stop-color="#5323F5"/><stop offset="1" stop-color="#5946F5"/></linearGradient><linearGradient id="f" x1="2749.82" x2="2669.72" y1="57.309" y2="98.449" gradientUnits="userSpaceOnUse"><stop stop-color="#5323F5"/><stop offset="1" stop-color="#5330F5"/></linearGradient><linearGradient id="g" x1="71262.8" x2="49579.3" y1="1875.76" y2="19460" gradientUnits="userSpaceOnUse"><stop stop-color="#5323F5"/><stop offset="1" stop-color="#5330F5"/></linearGradient><clipPath id="a"><path fill="#fff" d="M0 0h5000v400H0z"/></clipPath></defs></svg>