<svg xmlns="http://www.w3.org/2000/svg" width="373" height="368" fill="none"><g clip-path="url(#a)"><path fill="#7E61FF" d="M.094 50.539c46.025-24.823 74.182 11.29 89.618 32.194 49.953-30.235 111.039 3.359 107.298 67.747 46.586 5.692 104.211 52.443 46.399 141.84H.094z"/><path fill="#9F80FF" d="M96.353 186.78c24.135-17.543 65.483-18.663 80.731 0 16.464-4.012 40.225-3.452 53.789 12.411H96.353zm46.119-95.369h88.401c-23.667-6.718-51.357-6.251-60.15-2.706-11.694-7.184-20.3-3.732-28.251 2.706"/><path fill="#53A0A3" d="M34.706 91.412c-3.461-.56-6.923 1.4-7.203 7.464-1.778-.746-6.174-.933-6.83 7.372l20.581-.187c.094-10.637-2.993-14.09-6.548-14.65"/><path fill="#6E4A9B" d="M26.568 188.18c-.655-10.824-1.872-27.715-2.152-32.38s-2.339-8.585-3.648-11.572a35.5 35.5 0 0 1-2.9-11.384c-.281-4.666-1.59-17.17-1.59-21.369 0-4.2.56-4.853 7.857-5.693s72.499-.466 84.66 0c12.161.467 19.832.56 23.761 1.213 3.929.654 4.209 1.493 4.209 3.173s-1.029 22.863-1.029 26.222-1.59 13.344-1.87 16.05c-.281 2.706-2.9 4.853-4.21 6.812s-8.887 10.545-9.729 11.851-1.684 3.546-2.058 8.865-1.871 16.237-2.152 18.757c-.28 2.519-3.835 5.226-7.203 8.305-3.367 3.079-8.232 6.905-11.412 10.171-3.18 3.267-11.974 11.105-19.27 9.239-7.298-1.867-24.23-6.159-30.497-10.638-6.268-4.479-12.535-12.598-14.78-15.771-2.246-3.172-5.613-4.852-5.988-11.851"/><path fill="#5D4282" d="M58.467 115.02c1.59 6.533 1.122 16.331.935 18.664-.187 2.332-.655 13.904-.374 15.677.28 1.773.28 6.065.374 9.611a2.14 2.14 0 0 1-1.084 1.899 2.16 2.16 0 0 1-2.19-.032l-14.032-8.026a5.4 5.4 0 0 1-2.806-4.385c-.188-2.893-.468-6.999-.375-8.306s-2.338-7.092-3.648-9.238a24.8 24.8 0 0 1-2.994-9.238c0-1.866.749-11.478.749-11.478l14.406.373z"/><path fill="#B783D1" d="M135.83 133.684c.187-6.719.935-22.116.935-23.516s-.187-2.426-3.367-2.986l-3.274 1.773s2.245 5.319 2.712 7.185c.468 1.867 1.029 6.999 1.029 6.999l.936 10.545z"/><path fill="#5D4282" d="M119.272 124.819s-1.029-8.772-1.684-13.811l-6.081-3.453-30.964 5.412s.655 12.691.375 16.051c-.281 3.359-.655 6.065 0 7.185.654 1.12 2.806 5.319 4.116 7.559 1.31 2.239 2.619 3.826 2.432 4.946s-2.432 11.477-2.432 11.477l1.777 22.956 29.374 12.038c.561-4.479 1.496-11.385 1.684-15.211.374-5.319 1.309-7.652 2.058-8.865s1.777-2.239 3.461-4.292l-2.245-30.141v-5.786z"/><path fill="#76589B" d="M106.362 112.408c2.433 1.493 4.584 3.825 5.145 5.132.562 1.306 3.836 4.105 4.678 7.651s0 2.053 0 2.053a44 44 0 0 0-4.023-4.199c-1.59-1.213-5.145-3.732-5.706-4.572a58 58 0 0 1-2.058-6.065z"/><path fill="#6E4A9B" d="M110.104 133.777c17.026-1.213 40.038-.56 47.803-.093 7.764.466 6.922.746 7.951 1.959s.655 4.759.749 9.052-1.217 11.571-1.217 14.277a43.2 43.2 0 0 1-2.806 12.131c-1.871 4.759-4.958 7.092-8.606 10.078-3.649 2.987-5.239 2.24-9.823-.186-4.583-2.426-10.57-5.972-11.132-6.252s-1.496-.28-6.735-1.027-9.448-.84-10.384-3.359a121 121 0 0 1-3.742-13.718 9.8 9.8 0 0 0-2.806-5.412c-1.029-1.12-2.432-2.426-3.274-3.546a7 7 0 0 1-1.403-4.852c.093-2.053.187-5.133.374-6.253.187-1.119.374-2.519 5.051-2.799"/><path fill="#A06DBA" d="M158.374 144.788v6.532c0 1.12 1.123 2.706 1.497 4.853.431 2.054.588 4.156.468 6.252-.094 1.96-.655.653-.936-1.586-.28-2.24-2.338-4.853-3.554-6.533a8.3 8.3 0 0 1-1.871-4.759 57 57 0 0 0-.655-5.785z"/><path fill="#53A0A3" d="M145.278 139.469a161 161 0 0 1 21.142-1.68 5.4 5.4 0 0 0-.562-2.146c-1.029-1.213-1.122-1.586-7.951-1.959-6.829-.374-30.777-1.12-47.802.093-4.678.28-4.771 1.773-5.052 2.799s-.093.747-.093 1.213c2.712.28 12.254 1.866 13.47 2.053s2.526 1.026 4.397 1.773 5.613 2.706 7.577 2.986c4.217.569 8.468.849 12.723.84l15.248-.654c.15-.581.15-1.191 0-1.772-.281-.56-1.216-1.493-6.361-2.24-5.146-.746-9.636-.84-6.736-1.306m-8.7-30.794c-.468-.747-1.403-1.213-4.022-1.68s-11.6-.839-23.761-1.213l-8.045-.56c-19.552-.373-69.973-.279-76.615.28-6.642.56-6.455 1.213-7.297 2.426l4.304.654c1.496.28 7.577 1.586 11.88 1.586 2.151 1.586 4.397 2.986 9.542 2.986s11.412 1.586 15.903 1.866 5.238 1.213 10.01 1.026h18.896c4.28.018 8.559-.2 12.815-.653 4.21-.56 5.613-1.959 6.175-2.986 3.18 0 12.348-1.679 14.78-1.773a73.5 73.5 0 0 0 15.435-1.959"/><path fill="#502D80" d="M104.398 72.655H57.063a.47.47 0 0 0-.467.467l.467 2.706h46.68z"/><path fill="#34466E" d="M113.659 106.062H99.347l.842-14.837.093-1.586h12.442l.093 1.586z"/><path fill="#FADECA" d="M107.672 80.214a59 59 0 0 1-.655 9.425c-.187.84-.28 1.68-.467 2.426a35.8 35.8 0 0 1-5.987 13.997h-5.052l8.045-30.234.281-.84h2.713l.187.84.374 1.587z"/><path fill="#FADECA" d="M117.588 106.062h-5.052a37.2 37.2 0 0 1-5.987-13.997q-.266-1.201-.374-2.426a58 58 0 0 1-.748-9.425l.655-2.8.28-1.586.187-.84h2.807l.187.84z"/><path fill="#D9A551" d="M103.743 75.828c1.497 2.146 3.929 2.146 5.426 0z"/><path fill="#BE73D1" d="m104.398 75.828-.094.56-3.648 13.25-.468 1.587-4.022 14.837h-1.684l8.232-30.234zm14.126 30.234h-1.684l-4.022-14.837-.468-1.587-3.649-13.25-.093-.56h1.684z"/><path fill="#59338F" d="m102.714 75.828-8.232 30.234h-45.65l8.325-30.234z"/><path fill="#FADECA" d="m89.618 58.097 1.964-.933c.094 0 .094-.093 0-.093l-1.964-.933h-.094l-.842-2.053h-.093l-.936 2.053-2.058.933 2.058.933.936 2.053h.093l.842-2.053z"/><path fill="#53A0A3" d="M72.218 98.784c.749-5.133 2.245-8.679 3.555-9.799s2.62 1.307 3.555 5.506c1.777-.28 3.18-.28 4.49 2.613a30 30 0 0 1 1.777 4.852c3.368-.093 7.016 1.773 7.39 4.76H72.219z"/><path fill="#BE73D1" d="M110.292 72.655h-7.578a.465.465 0 0 0-.467.467l.467 2.706h7.578l.467-2.706a.465.465 0 0 0-.467-.467"/><path fill="#EDC25C" d="M73.621 57.071H47.428v48.935h26.193z"/><path fill="#F065E9" d="M50.328 31.036h20.393a2.9 2.9 0 0 1 2.9 2.893v12.783H47.428V33.93a2.9 2.9 0 0 1 .85-2.046 2.9 2.9 0 0 1 2.05-.847"/><path fill="#BBD0FF" d="M73.621 46.712H47.428v10.367h26.193z"/><path fill="#fff" d="M71.844 46.712h-3.18v10.367h3.18z"/><path fill="#A3B3FF" d="M62.209 46.712h-14.78v10.367h14.78z"/><path fill="#D9A551" d="M54.538 57.071h-7.11v48.935h7.11z"/><path fill="#EDC25C" d="M54.538 85.906H41.254v20.119h13.284z"/><path fill="#D9A551" d="M41.254 85.906h-10.29v20.119h10.29z"/><path fill="#FFD97D" d="M57.157 85.906h-2.62v20.119h2.62z"/><path fill="#FADECA" d="M30.964 85.906h26.193l-11.32-20.343a.93.93 0 0 0-.748-.466h-2.058a.75.75 0 0 0-.654.466z"/><path fill="#FFD97D" d="M73.528 57.071h-3.555v48.935h3.555z"/><path fill="#7C73FF" d="M73.621 52.965H47.428v1.475h26.193z"/><path fill="#EDC25C" d="m47.896 81.613-6.642 4.293v5.505h13.284v-5.505z"/><path fill="#D9A551" d="m36.109 81.613-5.145 4.293v5.505h10.29v-5.505z"/><path fill="#FFD97D" d="m56.315 84.413-1.777 1.493v5.505h2.619v-5.505z"/><path fill="#34466E" d="m48.457 70.322-2.62-4.759a.93.93 0 0 0-.748-.466h-2.057a.75.75 0 0 0-.655.466l-4.397 7.838z"/><path fill="#fff" d="m56.315 84.412-1.777 1.493-6.642-4.292-1.964-10.544 2.525-.747z"/><path fill="#E6B24A" d="M66.138 81.333c0-1.546-1.257-2.8-2.807-2.8a2.803 2.803 0 0 0-2.806 2.8v11.553c0 1.546 1.256 2.8 2.806 2.8a2.803 2.803 0 0 0 2.807-2.8z"/><path fill="#3C9186" d="M62.396 98.97a6.8 6.8 0 0 0-2.322-3.265 6.84 6.84 0 0 0-3.759-1.4 11.8 11.8 0 0 0-7.858 2.425c-2.151 1.68-3.368 6.065-4.49 9.798h27.409c0-6.439-4.77-8.118-8.98-7.558"/><path fill="#85B386" d="M60.057 109.328c.561-5.412 1.871-6.625 2.526-5.226s1.216 5.226 1.216 5.226zm20.393-3.266c-.28-1.586-1.59-2.799-2.432-2.519s-1.87 2.239-2.245 5.412h7.39c-.561-1.773-.468-2.24-2.713-2.893"/><path fill="#5D4282" d="M149.02 176.889a11.2 11.2 0 0 0 3.836-3.733c.748-1.213.654-4.012.467-5.412s-6.08-6.532-6.922-7.559a31.8 31.8 0 0 1-3.929-6.625c-.561-1.866-6.361-4.666-8.326-5.039-1.964-.373-2.432 1.306-2.432 2.799 0 1.494.374 5.879 0 7.186-.374 1.306-.281 3.732 1.123 4.852a59 59 0 0 1 5.425 6.719c.842 1.4 9.448 7.559 10.758 6.812"/><path fill="#3C9186" d="M124.979 128.924s-.655-4.666-2.433-7.278c-1.777-2.613-4.396-1.68-5.145 0s-.187 2.892-1.216 3.546-3.929 5.225-4.677 9.33h19.177c-.281-3.919-2.994-5.691-5.706-5.598"/><path fill="#69BA91" d="M136.578 108.675a73 73 0 0 1-10.103 1.679c-4.209-2.426-11.225-2.706-14.967-2.799s-6.361-1.12-9.916-1.493h15.809c7.297.28 12.255.467 15.155.933 2.9.467 3.648.933 4.022 1.68m29.281 26.968c-1.029-1.213-1.123-1.586-7.952-1.959-4.677-.28-14.78-.653-25.912-.56 5.051.373 10.664 1.213 11.412 2.146 5.145-.56 12.255-.28 13.003.653a11.26 11.26 0 0 1 5.613.933 1.86 1.86 0 0 1 1.029 1.027h3.368a5.4 5.4 0 0 0-.561-2.24m-21.516 4.106a10.68 10.68 0 0 0-7.297-2.893c1.871.747 2.619 4.013 2.619 4.013a31 31 0 0 1 4.397 0c1.964.186 5.519 1.119 6.829 1.213 1.309.093 3.18 1.026 3.18 1.773v1.119l4.304-.186a3.55 3.55 0 0 0 0-1.773c-.281-.56-1.217-1.493-6.362-2.24-3.742-.559-7.109-.746-7.577-1.026z"/><path fill="#6356D6" d="M177.645 232.972c9.261-1.68 20.393-.84 25.632 0 .935 4.012.093 9.611-2.526 11.944s-3.742 2.986-3.929 4.573c-.187 1.586-1.871 4.945-7.764 2.986s-9.542-3.826-10.571-8.585-4.023-10.358-.842-10.918"/><path fill="#5D51C9" d="M165.858 111.848c.094 3.359.842 4.199 1.684 4.852s1.59-.373 2.432-1.866a8.56 8.56 0 0 0 .749-4.386c0-.653-.562-.56-1.965-.56a5.07 5.07 0 0 0-2.713.467c-.28.28-.28.56-.187 1.493"/><path fill="#CCBDFF" d="M244.718 284.669c-10.009-47.965-69.318-41.899-86.998-38.54-8.7-45.351-47.615-67.747-89.524-72.413-7.297-18.103-29-40.126-68.102-29.021V368h372.222c-9.635-49.364-45.37-86.317-127.598-83.331"/><path fill="url(#b)" d="M51.731 193.872c44.996-1.119 86.718 21.37 105.989 52.257-8.7-45.351-47.616-67.747-89.524-72.413-4.678-11.664-15.436-25.009-32.929-29.954 11.039 11.198 11.413 20.436 16.464 50.11"/><path fill="url(#c)" d="M244.718 284.669c-6.829-32.754-36.764-40.313-60.618-40.686 22.17 2.706 42.751 18.476 43.125 42.832-40.787 9.145-49.767 22.396-49.767 22.396 64.547-.653 114.127 10.264 148.272 58.789h46.586c-9.636-49.364-45.37-86.317-127.598-83.331"/><path fill="#FFFAE6" d="m312.072 309.957 2.058-.933-2.058-.933h-.094l-.842-2.053c-.093-.093-.093-.093-.093 0l-.936 2.053-2.058.933 2.058.933.936 2.053c0 .093 0 .093.093 0l.842-2.053z"/><path fill="#FFF5CF" d="m264.269 271.511 2.526-1.12-2.526-1.12-1.122-2.426c0-.093 0-.093-.094 0l-1.029 2.426h-.093l-2.432 1.12 2.432 1.12h.093l1.029 2.426c.094.093.094.093.094 0z"/><path fill="#C495DE" d="m103.837 174.369 2.432-1.12-2.432-1.119h-.094l-1.029-2.426h-.094l-1.122 2.426-2.526 1.119 2.526 1.12 1.122 2.426h.094l1.029-2.426z"/><path fill="#ADEDFF" d="m177.832 275.337 3.368-1.493c.094 0 .094-.093 0-.093l-3.368-1.493-1.496-3.36h-.188l-1.496 3.36-3.368 1.493c-.094 0-.094.093 0 .093l3.368 1.493 1.496 3.359h.188z"/><path fill="#FFEFC4" d="m142.846 292.04 1.309-.653-1.309-.56-.655-1.399h-.094l-.561 1.399-1.403.56 1.403.653.561 1.307h.094z"/><path fill="#6C6C96" d="M118.056 250.795c4.49-1.773 6.081-2.613 7.11-1.213a5.5 5.5 0 0 1 1.029 3.266z"/><path fill="#824B6F" d="M120.675 234.932c-4.209 6.718-7.203 15.957-7.203 15.957l1.965.653c2.058-6.719 5.987-15.957 5.987-15.957z"/><path fill="#58A67E" d="m119.085 236.517-3.18 3.453c-.842-2.613.093-4.386 2.525-4.759-1.029-.467-4.209-2.519-4.209-2.519 1.496-.56 3.367-.28 5.332 1.586.748-1.12 2.432-2.426 5.238-1.12l-3.367 1.773c2.806.373 3.555 1.96 4.771 3.732l-4.678-1.586-.28 5.505s-2.526-3.919-2.152-6.065"/><path fill="#A281C7" d="m30.777 185.661.468-8.119a7.63 7.63 0 0 0-2.075-5.715 7.67 7.67 0 0 0-5.596-2.403 7.77 7.77 0 0 0-5.566 2.432 7.74 7.74 0 0 0-2.105 5.686l.561 8.119a24.13 24.13 0 0 1-4.864 15.77c-5.052 6.532-4.023 12.038.655 41.619h22.638c4.771-29.581 5.706-35.087.655-41.619a23.57 23.57 0 0 1-4.77-15.77"/><path fill="#A281C7" d="m48.925 190.326.28-5.319a4.94 4.94 0 0 0-3.034-4.938 5 5 0 0 0-2.017-.381A4.96 4.96 0 0 0 39.46 183a4.9 4.9 0 0 0-.264 2.007l.28 5.319a15.37 15.37 0 0 1-3.18 10.358c-3.274 4.386-2.62 8.025.468 27.435h14.874c3.087-19.41 3.742-23.049.467-27.435a15.37 15.37 0 0 1-3.18-10.358"/><path fill="#824B6F" d="M129.562 365.854H.094V265.352l53.695-9.051 82.789 5.319c0 3.546-2.712 23.609-2.712 23.609.748 2.799 2.899 6.998 4.022 11.384s1.497 6.159 1.59 9.612v12.504l1.123 16.144z"/><path fill="#5A3C5C" d="m48.177 270.858 2.526 17.357 2.806 8.492.842 33.78H.094V259.66l48.738 2.706z"/><path fill="#754465" d="m36.39 276.55 5.706 8.585 3.649 13.531-11.881-4.386-2.526-10.358s.094-5.505 0-6.905c-.093-1.4 2.62-1.867 5.052-.467"/><path fill="#734163" d="m76.24 274.591 5.239 13.81 5.706 8.305 1.216 10.359 1.965 11.944-18.522 3.266v-13.437l1.403-10.359-5.239-10.638v-16.143z"/><path fill="#754465" d="m101.03 261.34 1.123 13.064s3.087 4.199 5.706 7.372 8.794 9.612 10.29 11.385c1.497 1.773 1.778 2.053 3.274-3.266a88 88 0 0 0 2.246-10.732s-.655-4.572-1.404-5.785l-4.864-6.906-1.684-6.812z"/><path fill="#824B6F" d="M121.424 276.55c0 1.307-.374 5.972-.374 5.972l-.655 1.4-1.31-2.893-1.029-5.412z"/><path fill="#966290" d="M137.888 296.614c-1.122-4.386-3.274-8.585-4.022-11.385 0 0 2.712-20.063 2.712-23.609l-2.712-.186-1.965 1.493-.468 7.652.187 6.718-2.525 7.279s4.677 10.078 4.771 10.451l2.245 7.839 1.496 7.465 1.871-.28v-3.826c-.093-3.452-.467-5.225-1.59-9.611m-41.535-20.997.187 11.198s5.239 7.839 5.8 9.892l1.123 10.358-10.478-17.824s.562-4.199.562-6.065-.562-7.559-.562-7.559z"/><path fill="#6EAC8D" d="M.094 322.182c72.405-11.851 117.401-20.436 148.178-23.795s68.289 1.306 105.053 11.011c15.061 3.919 19.925 8.958 24.602 28.181 4.678 19.223 5.707 30.421 5.707 30.421H.094z"/><path fill="#629987" d="M187.748 326.195c6.268-.28 11.693.746 12.91 3.265z"/><path fill="#508F86" d="M61.46 322.275c21.61-1.679 38.728 2.986 44.715 17.357L76.24 351.577l-14.78-4.106z"/><path fill="#629987" d="M105.988 355.962c8.981-10.264 27.222-17.73 41.722-8.865s14.874 12.785 14.874 12.785c-13.003-5.413-38.728-7.839-56.596-3.92"/><path fill="#92D18F" d="M221.612 301.746c.374-8.865 4.023-12.131 5.987-13.065s1.965 2.613-.374 7.372c5.519-3.546 7.671-2.426 7.951-.933.281 1.493-4.022 3.826-6.829 5.133 5.8-1.027 11.413.56 3.368 3.359s-10.664 3.266-10.664 3.266z"/><path fill="#85C28D" d="M277.927 335.153c-4.677-18.103-9.542-22.862-24.603-26.595-36.764-9.145-74.182-14.277-105.053-11.011-17.119 1.866-51.918 8.585-80.263 13.157 16.184-.84 32.274-1.026 46.774-.373 19.083-1.96 38.354 2.986 48.831 6.439 12.161.373 19.738 3.919 19.738 3.919s24.416-9.238 43.312 0c16.091-2.053 29.093-1.026 41.909 3.639 5.239 1.96 5.8 3.266 9.355 10.825"/><path fill="#BAD17B" d="M176.242 301.559c-1.123-2.333-5.706-3.266-8.606-1.68z"/><path fill="#6AA88D" d="M229.376 313.877c-3.544.334-7.104.489-10.664.466-1.59 0-.748-1.773 4.677-1.773 5.426 0 5.987 1.307 5.987 1.307"/><path fill="#6EAC8D" d="M167.636 296.986c-2.246-4.106 1.309-6.905 4.49-4.946.374-4.665 10.383-8.304 13.751-1.866s3.368 7.558 3.368 7.558z"/><path fill="#6AA88D" d="M210.761 307.811c-18.429 2.706-39.758 4.759-49.393 4.759s-8.232-4.012 15.529-6.252c23.761-2.239 33.864 1.493 33.864 1.493"/><path fill="#78426A" d="M272.969 320.689c-4.958 12.411-8.232 10.731-14.219 14.371-29.841 17.076-53.602 32.94-53.602 32.94h78.953s-.935-11.664-5.706-31.447c-1.59-6.906-3.274-11.945-5.426-15.864"/><path fill="#5A3C5C" d="M254.073 338.419a45.4 45.4 0 0 1 7.016 13.624l.748 5.319 1.497.653s-.187-3.546-.281-5.132c-.093-1.587-1.964-7.652-1.964-7.652l-4.49-8.398zm-16.371 9.892a48.4 48.4 0 0 1 4.21 15.49l.842 4.199h-37.606z"/><path fill="#78426A" d="m225.635 358.014 8.045 4.853a1.68 1.68 0 0 0 2.058-1.12c.748-1.68-1.59-6.998-2.245-8.678a17.5 17.5 0 0 1-1.123-3.359z"/><path fill="#8F516F" d="M278.395 336.646c-1.59-6.812-3.274-11.945-5.426-15.864-2.338 5.692-6.267 8.399-8.232 9.985l1.684 2.053c5.239 8.678 6.548 20.25 6.548 20.25s5.707 10.171 6.081 14.93h5.052s-.936-11.664-5.707-31.354"/><path fill="#BF6172" d="M280.827 347.377c-.655-3.266-1.497-6.905-2.432-10.918-1.59-6.812-3.274-11.851-5.426-15.77a24.3 24.3 0 0 1-2.058 3.826l-.935 3.733c2.338 4.292 4.958 10.451 4.958 10.451l2.993 3.546 2.9 5.226z"/><path fill="#609684" d="M261.369 334.873c-7.764 9.705-17.586 13.904-28.625 16.61C221.706 362.215 206.832 368 206.832 368h-42.377s34.145-10.171 44.528-17.73c13.284-3.359 27.035-7.932 35.922-15.49 3.929-1.867 24.79-3.64 26.1-16.517.772.742 1.433 1.59 1.964 2.519 0 5.692-5.051 10.545-11.6 14.091"/><path fill="#FFDB9E" d="m88.495 174.183.655-10.265a9.7 9.7 0 0 0-2.608-7.289 9.73 9.73 0 0 0-7.121-3.069 9.75 9.75 0 0 0-7.122 3.069 9.7 9.7 0 0 0-2.607 7.289l.561 10.265a29.72 29.72 0 0 1-6.174 20.156c-6.36 8.305-5.145 15.397.936 53.097h28.812c5.987-37.7 7.297-44.792.842-53.097a30.74 30.74 0 0 1-6.174-20.156"/><path fill="#fff" d="m76.24 203.764 1.497-.654-1.496-.653-.655-1.399-.655 1.306-1.497.653 1.497.653.655 1.493.654-1.493z"/><path fill="#69BA91" d="M66.699 220.281c10.29-11.571 23.012-5.972 24.977 5.039 8.512-8.118 17.399-1.586 17.774 9.238.374 10.825 0 17.077 0 17.077H62.863z"/><path fill="#4C9677" d="M63.986 229.519c13.47-2.799 18.803-1.306 21.422 7.185 11.412-.746 15.435 3.453 18.522 11.851l-47.896-5.878z"/><path fill="#FFEFC4" d="M94.67 194.339a30.74 30.74 0 0 1-6.175-20.156l.655-10.265a9.7 9.7 0 0 0-1.444-5.766 9.72 9.72 0 0 0-4.543-3.845c1.777 5.599 0 11.757-.655 16.517s-1.31 13.344 2.62 18.476c3.928 5.132 11.412 10.172 13.844 19.037 0-6.533-1.31-10.172-4.303-13.998"/><path fill="#58A67E" d="M136.578 261.62c-11.412 4.106-19.644.466-23.386.653s-12.348 0-19.084-.56a77 77 0 0 1-15.529-.093c3.93.746 5.426 3.452 7.671 5.225 3.836.654 7.39 4.106 8.232 6.533 2.246.653 1.871 2.239 1.871 2.239-4.813.561-9.653.873-14.5.933-4.303 0-15.341-2.426-20.393-3.079-5.051-.653-26.006-5.412-26.006-5.412s-21.048 0-35.36-2.707v-27.155a178.8 178.8 0 0 1 51.918 3.36c24.042 1.213 38.541 3.639 54.444 7.185s25.445 3.919 27.784 6.906 2.525 2.799 2.338 5.972"/><path fill="#4C9677" d="M83.163 253.781h14.5c-12.816-4.199-14.5 0-14.5 0"/><path fill="#85C286" d="M106.456 248.742c-4.49-1.026-8.887-1.959-13.47-2.706 11.599 3.639 17.212 5.972 18.054 7.745 11.974.094 15.809 2.053 17.212 4.293a4.68 4.68 0 0 1 2.723 1.754 4.66 4.66 0 0 1 .926 3.098c1.496-.373 3.087-.746 4.677-1.306.187-3.173-.187-3.359-2.339-5.972-2.151-2.613-12.067-4.479-27.783-6.906"/><path fill="#629987" d="M179.235 333.659c-7.203-1.773-17.961-2.893-28.251-.374-4.116-1.213-9.822-1.306-17.119-.093-3.461-9.051-19.364-10.917-34.144-11.104 21.235-6.718 42.563-2.706 46.96 4.386 13.284-3.733 26.942-1.773 32.554 7.185"/><path fill="#1D2B38" d="M131.433 368H.093v-84.358c15.997-6.718 25.726-5.878 26.475 0 10.664-2.612 21.796-1.866 20.486 6.626 12.255.653 19.364 8.492 15.81 22.489 11.506-2.24 9.26 9.238 7.016 13.531 6.08 1.213 5.8 6.345 2.058 12.131 6.08-.933 13.564-.747 14.312 3.639 7.952-3.173 15.529-8.678 21.048-6.719 5.52 1.96 5.052 7.932 5.052 7.932 8.138-1.213 11.974-.56 10.571 5.039a73 73 0 0 1-3.181 9.892c9.542-.093 15.155.56 11.693 9.798"/><path fill="#854D76" d="M266.421 358.108c-6.455-2.613-13.845-5.505-17.587-5.972s-.374 1.4 5.052 5.972a63 63 0 0 1 9.261 9.891h11.787c-1.404-3.919-2.058-7.372-8.513-9.891"/><path fill="#8D8CC4" d="M168.291 308.558c3.18-9.612 10.383-11.011 11.786-11.478.281-11.571.094-13.624 8.42-16.144 8.325-2.519 19.551-3.266 26.006 0 6.454 3.266 8.98 12.878 9.261 17.637a48 48 0 0 1 0 7.279s-20.861 4.759-55.473 2.706"/><path fill="#6238EB" d="M46.306 259.1c18.237 0 33.022-14.748 33.022-32.94 0-18.193-14.785-32.941-33.022-32.941-18.238 0-33.022 14.748-33.022 32.941 0 18.192 14.784 32.94 33.022 32.94"/><path fill="#632ADE" d="M60.805 196.485a32.71 32.71 0 0 0-31.431 1.4c14.874 2.519 21.515-2.706 31.431-1.4m18.335 33.407c-7.764-9.145-23.573-8.118-31.338-2.333 1.778-14.93-22.264-25.755-31.525-15.117a33.4 33.4 0 0 0-2.993 13.718 32.8 32.8 0 0 0 4.35 16.347 32.9 32.9 0 0 0 11.927 12.021l32.367.746a33 33 0 0 0 11.745-10.572 32.9 32.9 0 0 0 5.468-14.81"/><path fill="#82B8E8" d="m57.718 190.979 2.058-.839-2.058-.933-.935-2.053h-.094l-.842 2.053h-.093l-1.965.933c-.093 0-.093 0 0 .093l1.965.84h.093l.842 2.053h.094l.935-2.053z"/><path fill="#6238EB" d="M42.19 234.838c-7.578-10.451-8.887-20.809-26.567-20.902a32.77 32.77 0 0 0-1.758 18.323 32.8 32.8 0 0 0 8.4 16.39l11.319 5.226 29.747.56a33.23 33.23 0 0 0 14.78-19.223c-12.441 2.612-30.121 7.558-35.921-.374"/><path fill="#632ADE" d="M13.47 222.987c-.093 1.026-.186 2.053-.186 3.173a32.9 32.9 0 0 0 8.98 22.489l7.016 3.266a49 49 0 0 0 3.18-8.212c6.923-23.609-13.47-25.848-18.99-20.716"/><path fill="#6238EB" d="M27.222 229.519c-.748-4.945-8.7-7.092-13.657.56a32.8 32.8 0 0 0 8.7 18.57l1.122.56c-4.49-9.052 4.584-14.371 3.835-19.69"/><path fill="url(#d)" d="M74.744 242.957c.748-8.772-2.713-19.877-9.916-30.048s-16.745-16.89-25.351-19.036a33 33 0 0 1 27.747 6.572 32.86 32.86 0 0 1 9.034 11.472 32.8 32.8 0 0 1 3.163 14.243 32.14 32.14 0 0 1-4.677 16.797" opacity=".32"/><path fill="#23283D" d="M62.75 210.711c.851-1.037.277-2.909-1.282-4.182s-3.513-1.465-4.364-.428c-.85 1.037-.277 2.91 1.283 4.183 1.559 1.273 3.512 1.464 4.363.427m-13.43-.032c.85-1.036.276-2.909-1.284-4.182-1.559-1.273-3.513-1.465-4.363-.428s-.277 2.91 1.282 4.183 3.513 1.464 4.364.427m10.937 10.007c.85-1.037.276-2.91-1.283-4.183-1.56-1.273-3.513-1.464-4.364-.427-.85 1.037-.276 2.909 1.283 4.182 1.56 1.273 3.513 1.465 4.364.428"/><path fill="#3A3C66" d="M58.747 205.257a1.77 1.77 0 0 0-1.346.417 1.76 1.76 0 0 0-.618 1.263 6.28 6.28 0 0 1 6.454 2.612 2.33 2.33 0 0 0-.28-1.306 4.87 4.87 0 0 0-4.21-2.986"/><path fill="#2D2E4F" d="M45.37 205.257a1.77 1.77 0 0 0-1.345.417 1.76 1.76 0 0 0-.62 1.263 6.28 6.28 0 0 1 6.456 2.612 3.6 3.6 0 0 0-.281-1.306 4.87 4.87 0 0 0-4.21-2.986m10.945 9.985a1.87 1.87 0 0 0-1.964 1.679 6.08 6.08 0 0 1 6.455 2.706 2.7 2.7 0 0 0-.281-1.4 5.05 5.05 0 0 0-4.21-2.985"/><path fill="#D44E7B" d="M88.495 174.183v2.333H70.347a19 19 0 0 0-.094-2.333v-1.493H88.59zm3.461 15.863h-25.07a27.5 27.5 0 0 0 1.59-3.825h21.796a28 28 0 0 0 1.684 3.825"/><path fill="#58A67E" d="M.094 228.119c18.99-9.145 32.18 2.24 37.044 12.318 12.161-1.68 17.868.653 20.393 5.879H.094zm76.146 18.197H15.716v15.041H76.24z"/><path fill="#4C9677" d="M61.46 273.471c5.052.653 16.09 3.079 20.394 3.079 4.846-.06 9.686-.372 14.5-.933 0 0 .374-1.586-1.872-2.239-.842-2.427-4.396-5.879-8.232-6.533-2.245-1.773-3.742-4.479-7.67-5.225 4.447.401 8.916.494 13.377.28-.936-2.893-5.239-5.226-9.261-5.599-3.368-4.106-8.326-7.092-18.71-7.092h-32.18l-4.397-2.893H.094v19.036c14.312 2.707 35.36 2.707 35.36 2.707s20.955 4.759 26.006 5.412"/><path fill="#437A6D" d="M0 238.944a6.65 6.65 0 0 1 10.758-.653c.28-8.118 4.116-9.705 6.455-8.958 2.338.746 4.77 3.173 4.77 13.064 6.081.28 9.73 4.013 10.104 7.745H.094z"/><path fill="#468069" d="M92.518 231.665c-1.59 2.986-3.648 12.411-4.116 22.116h9.261c-1.029-12.038-3.648-25.009-5.145-22.116M78.86 247.901c.561-7.464 1.31-10.637 2.058-11.57s2.806 5.692 3.18 11.57z"/><path fill="#82B8E8" d="M25.445 253.781h28.064v-15.545H25.445z"/><path fill="#BBD0FF" d="M40.6 253.781h12.909v-15.545h-12.91z"/><path fill="#827D99" d="M50.702 253.875h-3.835v-5.599a1.865 1.865 0 0 1 1.87-1.866 1.865 1.865 0 0 1 1.87 1.866v5.599z"/><path fill="#D4E1FF" d="m53.509 245.476-6.923-7.185h6.923z"/><path fill="#23283D" d="M25.445 238.291h28.064l-6.455-4.853H31.9z"/><path fill="#4E4766" d="m40.6 238.291 6.454-4.853 6.455 4.853z"/><path fill="#6BA1D1" d="M35.735 250.608c.878 0 1.59-.71 1.59-1.586s-.712-1.586-1.59-1.586-1.59.71-1.59 1.586.711 1.586 1.59 1.586m-5.987 0c.878 0 1.59-.71 1.59-1.586s-.712-1.586-1.59-1.586-1.59.71-1.59 1.586.712 1.586 1.59 1.586m0-5.972c.878 0 1.59-.71 1.59-1.586s-.712-1.587-1.59-1.587-1.59.711-1.59 1.587.712 1.586 1.59 1.586m5.987 0c.878 0 1.59-.71 1.59-1.586s-.712-1.587-1.59-1.587-1.59.711-1.59 1.587.711 1.586 1.59 1.586"/><path fill="#82B8E8" d="M71.937 240.25h-7.764v7.708h7.764z"/><path fill="#827D99" d="M71.937 240.25h-7.764v2.455h7.764z"/><path fill="#82B8E8" d="M58.654 247.902h5.426v-13.763h-5.426z"/><path fill="#58A67E" d="M5.987 257.607c7.67-3.079 13.751 4.759 13.751 4.759H2.058a6.06 6.06 0 0 1 1.313-2.914 6.1 6.1 0 0 1 2.616-1.845"/><path fill="#824B6F" d="M14.687 233.158c-2.993 12.971-2.62 29.208-2.62 29.208h3.556c-.562-11.758.654-28.368.654-28.368z"/><path fill="#85C286" d="m14.219 236.518-6.455 6.719c-1.122-3.826 1.03-6.999 5.426-8.585-1.777-.373-7.203-2.52-7.203-2.52a8.72 8.72 0 0 1 9.355.56c1.59-1.959 4.864-4.759 9.635-3.639l-6.361 4.106c5.051-.467 6.174 1.773 7.951 4.199l-8.139-.84-1.403 8.865s-4.022-5.225-2.806-8.865"/><path fill="#5CAD84" d="M86.25 266.845c-2.245-1.773-3.742-4.479-7.67-5.225a11.8 11.8 0 0 0-8.7-1.773c8.232 2.426 10.009 6.625 10.009 6.625a9.46 9.46 0 0 0-4.397.56c6.08.466 12.161 2.332 14.5 5.692a13.5 13.5 0 0 1 4.49.653c-.842-2.426-4.397-5.879-8.232-6.532"/><path fill="#4A8C7B" d="M109.637 271.698c5.8.28 9.448 2.239 11.787 4.852-7.297-.747-8.513-1.12-12.723-2.426-4.209-1.306-6.08-2.799.936-2.426"/><path fill="#468069" d="M47.896 266.659H64.08c-14.313-4.759-16.184 0-16.184 0"/><path fill="#6C6C96" d="M60.057 256.021c-2.806.373-5.706 5.878-6.548 10.637h14.874c-1.684-5.878-2.62-11.384-8.326-10.637"/><path fill="#58A67E" d="M106.175 271.885c1.029-2.8 3.181-3.826 4.491-2.24 2.619.187 4.958.373 4.958 4.106 0 0-6.175.28-9.449-1.866"/><path fill="#AEA3D1" d="M223.764 298.573c-.281-4.759-2.807-14.277-9.261-17.637a24.3 24.3 0 0 0-10.291-2.146c6.549.467 11.32 7.932 11.226 11.105 1.777.466 8.045 6.438 8.419 11.664 0-.84 0-1.866-.093-2.986"/><path fill="#7E74A6" d="M187.093 296.053c1.778.28 7.952 1.96 7.952 6.159a26.7 26.7 0 0 0 1.309 6.626c5.613-.28 10.384-.654 14.407-1.027 0-2.893-1.965-5.879-4.584-8.492-2.62-2.613-3.742-5.039-4.958-9.145s-5.239-9.891-12.723-9.238c2.152 2.333 1.31 6.999-1.403 15.117"/><path fill="#B3A9D1" d="M203.184 280.47c2.619.373 3.741 1.773 3.929 2.332.187.56-2.9-.746-2.9-.746z"/><path fill="#CFE08B" d="M212.632 304.359c1.029-6.066.374-12.598-3.368-12.318s-2.807 6.905-2.713 10.358c0 0-1.964-2.893-4.49-1.493s-1.684 5.879 2.9 9.331h9.167c7.858-6.625 1.404-10.638-1.496-5.878m13.377 1.213c2.245-7.465 9.261-18.943 11.412-21.463s1.497-.466-1.683 4.479-8.513 16.984-8.513 16.984z"/><path fill="#CFE08B" d="M225.354 287.095c-.28-2.893-.935-2.053-.655-.56.281 1.493 1.684 13.065 1.31 19.037h.655c.124-6.186-.314-12.37-1.31-18.477"/><path fill="#8C7CA6" d="M189.9 309.024a3.73 3.73 0 0 0-2.432-3.733 4.66 4.66 0 0 0-.655-5.038c-1.965-2.426-7.484-1.587-14.781 1.679a17.16 17.16 0 0 0-3.741 6.625h1.964c1.029-1.493 3.648-3.079 5.8-4.012.842-3.079 6.455-4.852 8.045-4.292 1.59.559 2.152 2.892 1.403 4.945a6.16 6.16 0 0 1 2.058 3.732z"/><path fill="#BAD17B" d="M210.667 306.877c.655-5.505-.093-11.384-1.122-10.824s-1.123 3.359-1.123 9.518c-.655-2.146-3.368-2.706-3.274-.653-.842-1.307-3.648-1.96-3.836 1.026a11.5 11.5 0 0 0 3.649 4.292h7.577c3.836-4.292.094-4.479-1.871-3.359"/><path fill="#20373D" d="M46.306 311.077c11.88-4.852 13.19 8.212 13.003 12.225 5.051 0 5.612 5.412 4.21 11.197 7.857-5.785 8.419 3.733 8.419 3.733 3.741-5.786 4.022-10.825-2.059-12.038 2.246-4.386 4.49-15.863-7.016-13.624 3.555-13.997-3.554-21.836-15.809-22.396.655-4.479-2.058-6.812-6.268-7.652 2.34 2.52 1.871 6.999-.28 8.865 8.42-.093 9.542 11.945 5.8 19.69"/><path fill="#253B47" d="M21.61 300.439c4.957-2.706 14.406-1.026 13.938 7.838 4.303-1.026 9.448.56 8.138 6.345-2.9-3.452-10.01-3.919-16.464-1.306a10.1 10.1 0 0 1 3.368-4.293c.468-5.038-2.62-7.558-8.98-8.584"/><path fill="#20373D" d="M68.008 345.231c7.671-2.333 13.565.653 13.565 5.132 8.98-3.266 14.874.84 15.341 2.427 5.332-4.293 14.5-3.826 17.119-2.427-5.051.56-13.47 5.226-15.81 8.305 5.052.467 7.859 3.826 7.859 9.239-4.678-4.853-14.126-8.865-19.832-8.492a13 13 0 0 1 4.77-3.266 33.2 33.2 0 0 0-17.586-3.639c1.31-3.733-.28-5.973-5.426-7.279"/><path fill="#192530" d="M.094 318.636c12.535-3.639 17.119.28 17.119 7.559 17.587-.84 26.66 4.945 23.293 18.196 10.945.933 21.142 10.545 22.358 23.609H51.45c-2.526-8.865-16.464-19.41-29.841-19.41 5.145-8.211 7.203-9.145 7.203-9.145-8.326-4.479-23.668-5.039-28.72-1.213z"/><path fill="#CFE08B" d="M235.738 310.331c3.648-1.96 15.903-2.053 18.335 4.292z"/><path fill="#8C7CA6" d="M221.051 313.13c2.058-4.013 5.051-4.386 6.548-4.293 2.339-1.306 6.735-1.213 6.081 4.946-4.116.373-12.629-.653-12.629-.653"/><path fill="#7E74A6" d="M223.67 310.051c.842-.373 1.684-.187 1.871.186.187.374-1.216 1.68-1.31 3.266h1.965a3.82 3.82 0 0 1 .935-2.519c1.029-.84 2.9-.187 3.836.466a14 14 0 0 0-.375-2.146c-.374-1.026-2.245-.933-2.993-.56a5.72 5.72 0 0 0-3.929 1.307"/><path fill="#85C28D" d="M216.587 331.586c.025-.463-1.293-.91-2.944-1s-3.009.214-3.034.677c-.026.464 1.292.911 2.943 1.001s3.01-.214 3.035-.678"/><path fill="#508F86" d="M150.329 307.158c5.425 0 9.823-.376 9.823-.84s-4.398-.839-9.823-.839-9.822.375-9.822.839 4.397.84 9.822.84"/><path fill="#CFE08B" d="M256.574 312.179c.021-.204-.75-.448-1.722-.546s-1.776-.012-1.797.192.75.449 1.722.547 1.777.012 1.797-.193m-55.261.018c-.749-.746-2.152-.093-2.9 1.027l6.735.279c-.468-1.306-2.152-1.866-3.835-1.306"/><path fill="#85C28D" d="M215.812 323.582c2.152-.56 5.987.466 8.045 1.772l-19.364-1.493c1.59-1.119 6.455-1.306 11.319-.279"/><path fill="#CFE08B" d="M144.155 313.503a39 39 0 0 1 1.217-10.357 18.34 18.34 0 0 1-1.217 10.357"/><path fill="#CFE08B" d="M144.155 313.503a37.4 37.4 0 0 0-1.496-10.637c-.375-1.027-.749-1.4-.281 1.213s1.31 9.424 1.31 9.424z"/><path fill="#7E74A6" d="M174.932 339.445c5.332-4.199 10.945-4.852 12.161 1.307z"/><path fill="#629987" d="M132.462 303.985c0-7.651-15.061-9.518-20.767-6.718-5.426-3.36-15.248-3.36-15.716 8.677 11.88-.653 21.048-.373 25.445.374 8.325-.84 11.038-2.333 11.038-2.333"/><path fill="#BAD17B" d="M116.278 296.147c6.081-.653 10.478 3.545 11.132 5.318 2.152-.466 4.678 0 5.052 2.52 0-6.065-9.448-8.491-16.184-7.838"/><path fill="#508F86" d="M111.695 305.571a2.24 2.24 0 0 0-1.646-3.172 2.24 2.24 0 0 0-1.348.186 3.63 3.63 0 0 0-.187-2.706c-.842-1.959-4.303-2.706-6.174.093-2.338-.653-2.993 2.426-2.058 3.733-2.151-.653-2.338.933-1.684 2.053 4.958-.187 9.355-.187 13.097-.187"/><path fill="#A73DB3" d="m162.023 294.841-9.261 8.211-9.262-8.211v-18.477l9.262-8.212 9.261 8.212z"/><path fill="#CC4CC8" d="m159.31 290.828-4.865 4.665-4.864-4.665v-10.452l4.864-4.666 4.865 4.666z"/><path fill="#F275FF" d="m154.446 275.71-1.684-7.558 9.261 8.212-2.713 4.012z"/><path fill="#772C91" d="m162.023 294.84-2.713-4.012-4.864 4.665-1.684 7.558z"/><path fill="#8C39A8" d="m152.762 303.051 1.683-7.558-4.864-4.665-6.081 4.012z"/><path fill="#B341BF" d="m143.5 294.84 6.081-4.012v-10.452l-6.081-4.012z"/><path fill="#D464CE" d="m152.481 291.481 1.871-1.493-3.461-1.12z"/><path fill="#D45AE0" d="M151.265 278.696a11.7 11.7 0 0 1 5.239 4.013l2.806 1.493v1.772a41 41 0 0 0-4.49-1.772c-.468-1.493-3.836-3.919-5.239-3.826z"/><path fill="#fff" d="m156.223 277.297-.374-6.439 2.245 1.96-1.123 5.319z"/><path fill="#629987" d="M94.295 312.477c4.397-.84 9.168-.187 10.758 1.026l-14.687.747s.094-2.799 3.93-1.773"/></g><defs><linearGradient id="b" x1="121.386" x2="-3.16" y1="208.934" y2="143.499" gradientUnits="userSpaceOnUse"><stop offset=".03" stop-color="#fff"/><stop offset="1" stop-color="#CCBDFF"/></linearGradient><linearGradient id="c" x1="275.386" x2="372.724" y1="244.126" y2="367.963" gradientUnits="userSpaceOnUse"><stop stop-color="#fff"/><stop offset="1" stop-color="#CCBDFF"/></linearGradient><linearGradient id="d" x1="49.991" x2="75.717" y1="203.251" y2="226.008" gradientUnits="userSpaceOnUse"><stop stop-color="#6238EB"/><stop offset="1" stop-color="#80FBFF"/></linearGradient><clipPath id="a"><path fill="#fff" d="M0 0h372.316v368H0z"/></clipPath></defs></svg>