<svg xmlns="http://www.w3.org/2000/svg" width="373" height="368" fill="none"><g clip-path="url(#a)"><path fill="#6B52FB" d="M372.316 67.363v84.309l-204.264 96.82-31.346-58.633c-29.007-70.211 22.457-108.958 72.891-96.353.842-8.963 9.264-27.917 30.411-28.85-.188-38.467 20.024-52.285 45.007-48.55 14.316 2.147 23.86 11.857 29.1 26.702 22.738-1.867 42.762 1.774 58.201 24.555"/><path fill="#CCBDFF" d="M269.389 188.178c-20.586.374-37.709 7.189-48.563 24.929-52.774-38.653-142.32-8.03-122.016 94.766C38.645 306.192 10.293 325.332 0 368h372.316V103.496c-48.937-22.501-109.664 9.523-102.927 84.682"/><path fill="#B8A3FF" d="M372.316 134.587c-24.328-.934-53.616 14.565-54.271 51.724v16.432h54.271z"/><path fill="url(#b)" d="M269.388 188.178c-16.281.28-37.24 5.229-49.311 24.182-23.486-21.101-69.523-24.182-99.933 4.295 32.656-21.661 67.183-2.428 78.318 25.395 5.24-4.388 9.919-8.309 14.317-11.577l.28-.187 1.03-.654c13.193-9.149 45.287-21.66 80.844-2.987 5.053-27.823 7.299-40.147 26.013-57.047-33.966-8.122-43.791 4.482-51.558 18.58"/><path fill="url(#c)" d="M107.325 335.509a146.5 146.5 0 0 1-8.515-27.636c-48.843-2.428-74.014 11.484-85.71 30.437 15.345-15.592 57.265-16.806 94.225-2.801"/><path fill="url(#d)" d="M140.636 240.463c-18.152 0-25.545 12.324-26.012 24.928a3462 3462 0 0 1 26.012-24.928"/><path fill="#fff" d="m84.213 346.993 1.684-.747-1.684-.747-.748-1.681h-.094l-.655 1.681h-.094l-1.59.747 1.59.747h.094l.655 1.68h.094z"/><path fill="#53A0A3" d="M285.015 101.722c1.403-6.256 4.959-5.696 6.176-5.042 1.216-2.148 6.643-3.081 5.894 3.268 1.03-.84 3.65-1.214 3.088 5.041h-15.158z"/><path fill="#484294" d="M273.88 104.149h-3.369v-5.882a2.25 2.25 0 0 1 1.685-.758 2.25 2.25 0 0 1 1.684.758zm20.96-15.405h-2.433v15.872h2.433z"/><path fill="#59A1FF" d="M272.196 99.668c6.459 0 11.696-5.226 11.696-11.671 0-6.446-5.237-11.67-11.696-11.67-6.46 0-11.696 5.224-11.696 11.67s5.236 11.67 11.696 11.67"/><path fill="#4294FF" d="M283.892 87.437a11.65 11.65 0 0 0-3.239-7.558 11.7 11.7 0 0 0-7.428-3.553c-6.082 4.482-6.737 13.818-5.708 22.315a10.8 10.8 0 0 0 5.147 1.026 11.7 11.7 0 0 0 8.171-3.778 11.65 11.65 0 0 0 3.057-8.452"/><path fill="#A3CAFF" d="M288.851 82.769a1.22 1.22 0 0 0-.655-.84 1.03 1.03 0 0 0-.655-.28 5.7 5.7 0 0 0-1.216-.28h-2.246l-2.059.186q.382.577.655 1.214h3.463l.935.28h.281c0-.094 0-.094.094 0h-.094l-.187.186a2.5 2.5 0 0 1-.749.654 8 8 0 0 1-1.778.934l-1.029.56-2.807 1.12c-2.714.934-5.427 1.774-8.141 2.428a83 83 0 0 1-8.327 1.867l-3.369.373h-4.117c0-.093 0-.093.094 0 0-.093.093-.186.187-.28l.655-.56a11.4 11.4 0 0 1 1.778-1.12l.935-.467v-.187a2.7 2.7 0 0 1 0-1.213l-1.59.653-1.965 1.12-.936.747q-.218.31-.374.654a1.12 1.12 0 0 0-.188 1.027 1.2 1.2 0 0 0 .656.84c.177.168.41.268.654.28.381.18.796.276 1.217.28h3.556l3.087-.373a65 65 0 0 0 8.515-1.68 86 86 0 0 0 8.328-2.615l2.433-1.12 1.59-.747 1.872-1.214c.351-.196.667-.448.936-.747l.467-.653c.133-.326.166-.683.094-1.027"/><path fill="#BB53C9" d="M293.623 91.825a3.084 3.084 0 0 0 3.088-3.08 3.084 3.084 0 0 0-3.088-3.082 3.084 3.084 0 0 0-3.087 3.081 3.084 3.084 0 0 0 3.087 3.081"/><path fill="#484294" d="M287.449 77.54h-2.434v27.141h2.434z"/><path fill="#D9B95B" d="M286.231 79.034c3.515 0 6.363-2.842 6.363-6.349 0-3.506-2.848-6.349-6.363-6.349-3.514 0-6.362 2.843-6.362 6.35s2.848 6.348 6.362 6.348"/><path fill="#FFFAE6" d="m225.411 22.455 1.497-.654-1.497-.653-.655-1.494h-.094l-.655 1.494-1.497.653 1.497.654.655 1.494h.094z"/><path fill="#6E4A9B" d="M265.927 103.589c12.164-1.214 19.462 0 19.462 0 7.486-.56 13.194.28 16.094 1.494s3.93 1.494 4.304 2.708c.375 1.213-.374 15.032-.935 21.007-.562 5.975-8.515 10.924-22.364 16.432-4.304 1.774-8.234 2.988-11.977-2.614-3.742-5.602-4.397-7.656-4.584-8.123-.188-.467-6.176-2.707-7.299-9.616s-1.591-14.192-1.778-16.619c-.187-2.428-.748-4.109 9.077-4.669m-33.311 26.702c.468-1.027 3.462-9.056 3.555-11.857.094-2.801.281-11.484 0-13.071-.28-1.587-2.058-2.054-6.55-2.241-4.491-.187-19.369 0-19.369 0s-13.38-.934-26.293-.467c-6.924.28-11.977.654-14.316.84-2.339.187-3.369 1.214-2.901 9.71s1.965 19.047 2.246 22.875.561 7.282 7.673 10.83c1.965 14.285 1.684 12.791 15.345 18.954 3.462 1.027 11.509 2.8 15.346 2.8s5.427-1.587 8.421-3.174 4.398-8.309 4.866-9.43c.468-1.12 2.526-1.774 5.24-4.015 2.713-2.24 3.93-3.267 4.304-6.722.374-3.454 1.684-13.258 2.433-15.032"/><path fill="#5D4282" d="m179.561 114.14-.187 3.921-1.31 2.894a3.64 3.64 0 0 1-1.216 1.588c-.374.373-.374.466-.281-.561.094-1.027.281-2.614.281-2.894s-.094-.373-.749-1.307 3.462-3.641 3.462-3.641"/><path fill="#AA7AC2" d="M173.105 118.621v1.213l.655 1.494.281-1.494.187-1.773zm-3.462-15.125c-3.369.28-3.369 1.213-2.901 9.71s1.965 19.046 2.246 22.874c.053 1.558.336 3.1.842 4.575.131-.227.196-.485.187-.747-.09-2.555.004-5.114.281-7.656a65 65 0 0 0 .468-7.096c0-2.987 0-2.614-.842-5.695-.843-3.081-.749-3.361-.655-5.042s.093-7.095.374-10.923m13.942 8.403c0 1.961.093 7.376.28 9.15s.562 6.722.562 7.562c0 .841.28.747 1.31 2.054 1.029 1.307.748 1.121.842 2.241s.561 6.162.561 7.469.468 1.214.468-1.213.374-9.43.374-10.644.001-1.307-1.029-4.108-.935-2.148.094-4.108c1.029-1.961.935-10.084.935-10.084z"/><path fill="#5D4282" d="M213.059 106.763s-.187 9.43-.093 12.511c2.62 5.135 2.526 4.855 2.433 10.177-.094 5.322.093 5.042-2.527 7.096 0 4.575.562 15.779-3.836 18.86l-7.673 5.415c4.211.093 7.018-.093 9.076-1.307a17.8 17.8 0 0 0 5.521-4.108c1.778-2.148 6.831-2.708 7.111-7.47.281-4.761 1.778-13.071 1.778-16.899s2.059-6.722 2.527-11.204c.343-5.13.312-10.279-.094-15.405.187-1.867-1.684-.373-1.684-.373l-15.346-.934z"/><path fill="#2F5C66" d="M217.925 94.72c.749-5.789 5.801-5.416 7.673-2.148 1.497-1.867 3.649-1.213 4.117 4.108.468 5.322.468 6.816.468 6.816h-12.258z"/><path fill="#7AA9E6" d="M224.288 96.213 227.563 95v6.535h-3.275z"/><path fill="#BBD0FF" d="M214.931 56.44h-6.176c-.842 21.193-4.398 36.319-11.977 46.122h30.13c-7.58-9.803-11.135-24.929-11.977-46.122"/><path fill="#7381FF" d="m211.843 56.44-4.491 45.188h5.988V56.44z" opacity=".7"/><path fill="#44948F" d="M204.732 86.97c-.374-7.003-1.123-13.352-6.737-13.352-5.708-9.896-14.41-5.228-14.972 11.018l.936 17.926h27.884c-.655-10.55-1.684-15.219-7.111-15.592"/><path fill="#F0CA8C" d="M173.386 82.395h16.094v19.607h-17.217V83.515a1.123 1.123 0 0 1 1.123-1.12"/><path fill="#FFDFAB" d="M186.954 84.916h-1.03v14.677h1.03z"/><path fill="#FFDFAB" d="M187.047 98.268h-12.258v1.26h12.258z"/><path fill="#E5A16A" d="M187.047 84.916h-12.258v9.523s3.836-1.213 4.679-4.761c3.742 1.307 7.579-3.548 7.579-3.548z"/><path fill="#E5A16A" d="M176.287 84.916h-1.498v14.658l1.498-1.307zm25.076 17.179H189.48V82.489h10.76a1.124 1.124 0 0 1 1.123 1.12z"/><path fill="#4F999C" d="M228.779 101.255c-4.398-.187-18.808 0-18.808 0a251 251 0 0 0-25.451-.373c-4.573.139-9.135.544-13.661 1.213-3.836.467-3.649 1.214-3.836 2.521 5.801.56 13.942.56 16.936.56h6.924a42 42 0 0 0-6.175 5.135c-2.433 2.615-.936 1.681 4.304 1.027 4.093-.565 8.219-.877 12.351-.933a45 45 0 0 0 8.141-.747 4.3 4.3 0 0 0 3.368-2.241 1.58 1.58 0 0 0 0-1.587s5.146-.654 8.047-.747 9.638.467 10.761.467 0-1.587 0-1.587l3.368-.28c-.187-1.494-1.871-2.241-6.269-2.428"/><path fill="#7381FF" d="M216.334 72.778c-.655-4.948-1.123-10.457-1.403-16.339h-6.176c-.094 3.362-.374 6.63-.655 9.71z" opacity=".7"/><path fill="#BBD0FF" d="M230.183 43.742a18.28 18.28 0 0 1-4.124 11.637 18.35 18.35 0 0 1-10.592 6.377c-4.164.837-8.49.207-12.24-1.785a18.3 18.3 0 0 1-8.32-9.133 50.7 50.7 0 0 1 34.527-12.418c.491 1.732.743 3.522.749 5.322"/><path fill="#413A61" d="M194.907 50.838a50.87 50.87 0 0 1 34.527-12.418 21 21 0 0 0-1.216-3.081 54.07 54.07 0 0 0-34.341 12.324c.244 1.088.589 2.15 1.03 3.175"/><path fill="#FC5199" d="M228.124 35.339a53.6 53.6 0 0 0-34.153 12.324 19 19 0 0 1-.468-3.921 18.28 18.28 0 0 1 3.927-11.295 18.34 18.34 0 0 1 10.079-6.466c3.99-.968 8.19-.572 11.928 1.124a18.32 18.32 0 0 1 8.687 8.234"/><path fill="#FCA7C9" d="M200.147 32.352c-.281-.28-1.404.747-2.433 2.334s-1.778 3.268-1.497 3.641 1.403-.747 2.526-2.334 1.778-3.268 1.404-3.641"/><path fill="#D64592" d="M228.124 35.34a54 54 0 0 0-24.983 6.161 22 22 0 0 1 .561-5.975 21.56 21.56 0 0 1 5.24-9.897l2.901-.187a18.3 18.3 0 0 1 9.539 2.658 18.2 18.2 0 0 1 6.742 7.24"/><path fill="#7C73FF" d="M230.183 43.742a18.3 18.3 0 0 1-2.622 9.422 18.3 18.3 0 0 1-7.11 6.73 16.4 16.4 0 0 1-2.994-.373c-7.205-1.68-12.351-7.563-13.942-14.752a52 52 0 0 1 25.919-6.349c.491 1.732.743 3.522.749 5.322" opacity=".5"/><path fill="#413A61" d="M220.149 42.724c2.197-1.032 2.873-4.213 1.509-7.106s-4.252-4.401-6.45-3.37c-2.197 1.033-2.873 4.214-1.509 7.107s4.252 4.401 6.45 3.37"/><path fill="#7C73FF" d="M218.953 40.19c1.123-.527 1.461-2.164.757-3.657-.704-1.494-2.184-2.277-3.306-1.75-1.123.527-1.462 2.165-.758 3.658.705 1.493 2.185 2.276 3.307 1.749"/><path fill="#5D4282" d="M195.187 116.567a2.61 2.61 0 0 0 1.123 1.96c3.088 2.334 6.176 4.762 8.047 6.443 1.872 1.68 4.398 4.388 4.492 3.641.093-.747 1.029-4.388 1.497-7.563s0-2.521-2.994-3.921c-2.995-1.401-9.357-3.361-11.229-4.015s-1.029.467-.936 3.455"/><path fill="#4F999C" d="M301.483 105.083c-2.9-1.214-8.608-2.054-16.094-1.494 0 0-7.298-1.213-19.462 0-7.112.374-8.702 1.401-8.983 2.801-.094.467 1.31.094 3.649 0 2.339-.093 19.276 2.708 25.264 3.922 5.989 1.213 5.708.746 3.743-.934s-1.965-1.401 1.871-1.494 9.264.467 10.948.467 3.649.56 3.369-.56c-.281-1.121-1.591-2.615-4.305-2.708"/><path fill="#FCBDD6" d="m192.942 43.182 1.31-.654-1.31-.653-.655-1.4-.655 1.4-1.404.653 1.404.654.655 1.307zm78.318 26.889 1.497-.747-1.497-.653-.749-1.494-.655 1.494h-.093l-1.497.653 1.497.747h.093l.655 1.494z"/><path fill="#4F999C" d="M172.263 83.235v11.951c2.62-.187 4.304-3.454 4.678-5.882 1.591 0 2.059-1.214 2.433-2.988a3.47 3.47 0 0 0 2.333-.672 3.46 3.46 0 0 0 1.316-2.035c.281 1.307.655 1.774 1.31 1.68.655-.093.655-2.894.655-2.894h-11.883a.84.84 0 0 0-.842.84"/><path fill="#D9925B" d="M199.305 84.916h-1.03v14.677h1.03zm-6.082 0h-1.03v14.677h1.03z"/><path fill="#D9925B" d="M199.304 85.85v-1.027h-7.111v1.027zm0 13.631v-1.027h-7.111v1.027z"/><path fill="#85B386" d="M196.217 102.936c0-7.003 4.772-7.283 4.772-7.283.374-2.894 2.058-5.228 3.275-3.174 1.216 2.054 1.216 5.882 1.216 5.882 1.965 0 1.872 3.081 1.872 4.575z"/><path fill="#FFF1D9" d="M187.982 96.4h-9.17v6.461h9.17z"/><path fill="#BBD0FF" d="M188.076 102.936h4.866v-6.461h-4.866z"/><path fill="#C77BA7" d="M178.812 96.4h14.13l-3.088-2.521h-8.328z"/><path fill="#7381FF" d="M180.591 99.855a.66.66 0 0 1 .463.191.66.66 0 0 1 .192.462v2.428h-1.31v-2.428a.655.655 0 0 1 .655-.653" opacity=".7"/><path fill="#fff" d="M182.743 99.575a.56.56 0 1 0 .001-1.121.56.56 0 0 0-.001 1.12m2.245.001a.56.56 0 1 0 .003-1.122.56.56 0 0 0-.003 1.121"/><path fill="#B86796" d="M189.387 95.466h-1.966l-.468-.747v-1.4h1.03v1.494z"/><path fill="#BBD0FF" d="M200.428 99.481a2.53 2.53 0 0 1 2.334 1.556c.126.306.192.634.192.965v5.508h-5.053v-5.508c0-.669.266-1.31.74-1.783a2.53 2.53 0 0 1 1.787-.738"/><path fill="#7381FF" d="M199.211 104.43q.13 0 .251.049a.65.65 0 0 1 .405.604v2.428h-1.311v-2.428a.653.653 0 0 1 .655-.653" opacity=".7"/><path fill="#D6E3FF" d="M201.363 103.309a.748.748 0 1 0 .002-1.496.748.748 0 0 0-.002 1.496"/><path fill="#398A85" d="M194.813 105.55a1.87 1.87 0 0 0-1.871 1.96h3.836a1.96 1.96 0 0 0-1.965-1.96m-15.252 8.59a15.8 15.8 0 0 0-5.801 3.454c-2.059 2.334 1.216.654 2.339.187l1.123-.187a1.96 1.96 0 0 0 1.497-1.214z"/><path fill="#59B0A2" d="M174.508 117.594c0-.934-.374-3.361.375-4.108s.187-1.961.561-2.148c.375-.186.936.374 1.03 2.708s.094 2.427.094 2.427z"/><path fill="#52A9FF" d="M219.89 97.52h-4.117v4.566h4.117z"/><path fill="#52A9FF" d="M219.796 102.095h3.182v-2.287h-3.182z"/><path fill="#528C75" d="M216.053 100.322c-.842-.84-1.777-.56-1.964.466a1.23 1.23 0 0 0-.958.352 1.2 1.2 0 0 0-.352.956h4.117c0-.747.187-1.774-.843-1.774"/><path fill="#5D4282" d="M270.605 116.1c.281-5.509 7.579-4.202 10.573-3.361s5.24 4.855 5.053 10.27a36.4 36.4 0 0 1-1.31 9.336c-.187 1.121-2.339 3.828-6.55-3.081-4.21-6.909-7.86-11.11-7.766-13.164"/><path fill="#85B386" d="M282.395 99.108c-.094-2.428-.187-7.376-2.059-7.283-1.871.093-2.526 8.123-2.433 12.978l8.235.187c.561-5.322-1.965-5.976-3.743-5.882"/><path fill="#85B386" d="M279.401 96.027c-3.088-1.494-4.679 2.334-4.024 8.869h4.024zm-16.375 8.496c0-2.148 1.123-2.614 1.965-2.614 0-1.681 1.123-2.428 1.871-1.681.749.747.936 4.108.936 4.108z"/><path fill="#5D51C9" d="M317.671 76.047a.75.75 0 0 0-.375-.654c-3.181-1.587-8.234-1.4-10.76.187-.936.56-.842 2.334-.655 3.548s.842 4.108 2.433 4.855 1.497.84 1.59 2.707c.094 1.868 1.217 2.428 3.743.56 2.527-1.867 2.62-3.267 2.62-4.481s1.31-2.614 1.404-6.722M152.052 155.78c.093 3.455.935 4.295 1.777 4.855s1.591-.28 2.433-1.774a9.9 9.9 0 0 0 .749-4.388c0-.653-.562-.56-1.965-.653a4.6 4.6 0 0 0-2.714.56c-.28.28-.28.467-.28 1.4"/><path fill="#8A66FF" d="M352.76 58.867h-58.949c6.456-6.629 31.252-6.255 37.989-2.427 9.076-1.774 13.474-1.587 20.96 2.427"/><path fill="#8462F5" d="M198.275 145.043c17.124-15.592 39.206-7.189 46.13-2.427 10.012-5.042 16.656-2.801 22.738 2.427z"/><path fill="#85B386" d="M309.156 180.989c-3.649-2.054-7.673.934-7.673 7.843 0 0-4.585.467-4.678 11.11h14.971z"/><path fill="#5E6AF2" d="M307.098 190.699h-16.562v9.187h16.562z"/><path fill="#754478" d="M294.653 195.274h-2.246v4.453h2.246z"/><path fill="#443E59" d="M307.098 190.699h-16.562l4.772-2.707h7.672z"/><path fill="url(#e)" d="m345.461 139.722-27.697 1.867a6 6 0 0 0-4.584 2.988l-13.942 25.115a5.4 5.4 0 0 0 .093 5.695l13.568 22.595a5.81 5.81 0 0 0 5.333 2.707l27.603-1.867a6 6 0 0 0 4.585-2.988l13.942-25.115a5.4 5.4 0 0 0-.093-5.695l-13.568-22.595a5.71 5.71 0 0 0-5.24-2.707"/><path fill="#276F96" d="M315.706 200.316a5.9 5.9 0 0 0 2.526.373l8.234-.56 19.276-1.307a5.6 5.6 0 0 0 2.994-1.12l-3.088-15.406z"/><path fill="#ADEDFF" d="M314.864 142.709a6.5 6.5 0 0 0-1.684 1.867l-13.942 25.116a5.7 5.7 0 0 0-.749 2.987l13.006.934z"/><path fill="#69CBE6" d="M298.489 172.68a6.44 6.44 0 0 0 .842 2.801l3.088 5.041 10.48 17.366c.41.718.988 1.327 1.684 1.774l-3.088-26.049z"/><path fill="#53BEDB" d="M365.017 167.171a5.3 5.3 0 0 0-.748-2.241l-13.568-22.408a5.5 5.5 0 0 0-2.245-2.147l-5.802 11.857z"/><path fill="#69CBE6" d="M348.456 140.375a5.8 5.8 0 0 0-3.088-.653l-27.51 1.867a6.4 6.4 0 0 0-2.9 1.027l27.696 9.617z"/><path fill="#2D92BA" d="m311.495 173.613 34.153 8.683-2.994-30.064z"/><path fill="#309AC4" d="m345.648 182.296 19.463-13.818a6.6 6.6 0 0 0-.094-1.307l-22.363-14.939z"/><path fill="#528C75" d="M336.946 196.394c0-6.255 5.334-8.309 7.579-7.749.094-10.457 1.591-14.005 5.334-14.192s4.117 6.629 4.117 6.629c4.211-.093 5.708 3.455 5.989 9.337 4.117.093 8.327 2.988 8.701 7.469l-30.41 1.214z"/><path fill="#7D456E" d="M347.145 190.045a34 34 0 0 1 1.498 7.19h-.936c-.187-2.895-.842-6.909-.842-6.909z"/><path fill="#85B386" d="m348.362 190.886 3.275-.654c-.749-.84-1.872-.84-3.462-.56a14.2 14.2 0 0 1 1.777-2.241 2.527 2.527 0 0 0-3.181 2.241 3.2 3.2 0 0 0-2.456-.32 3.18 3.18 0 0 0-1.942 1.534 12.3 12.3 0 0 1 3.088-.28 3.82 3.82 0 0 0-1.403 2.614l3.087-1.774 2.527 1.681a2.05 2.05 0 0 0-1.31-2.241"/><path fill="#505C80" d="M358.374 197.328c.374-2.427 2.246-3.361 3.181-2.427.587.675.918 1.534.936 2.427z"/><path fill="#6473A1" d="M360.807 197.328c.468-1.027 2.527-1.307 2.995.187s-2.995-.187-2.995-.187"/><path fill="#505C80" d="M349.485 197.048c-.187-1.961-1.591-2.801-2.527-1.681-.935 1.12-.935 1.961-.935 1.961z"/><path fill="#6EAC8D" d="M308.407 193.406c3.369-1.12 7.299.281 8.609 6.816l-13.474 1.214v-1.027a7.36 7.36 0 0 1 1.317-4.273 7.4 7.4 0 0 1 3.548-2.73"/><path fill="#58A67E" d="M280.71 241.583c0-7.749 2.527-11.67 7.205-11.67 4.679 0 3.556 12.604 3.556 12.604z"/><path fill="#824B6F" d="M361.462 197.421v73.199l-85.056-.841c2.34-12.511 8.234-31.744 8.234-31.744s.843-23.341 2.246-30.25c0-1.868-.281-5.229-.468-7.189a2.053 2.053 0 0 1 2.059-1.961l7.298-.56c5.427-.187 30.504-1.681 43.043-1.307z"/><path fill="#754465" d="m332.174 202.183-2.246 8.03-3.087 4.948-2.807 2.801 1.122-6.069.094-4.762 4.117-3.921z"/><path fill="#5A3C5C" d="M372.316 197.422s-21.053-.28-33.498-.654h-3.556c0 .093-4.959 19.047-5.708 23.341l-16.749 20.634-1.123 19.42 43.323 10.457h17.311z"/><path fill="#63A6FF" d="M349.298 197.048c3.742 3.175 3.462 5.695 3.555 12.324v14.005c-.093 3.735 0 18.206 0 18.206h7.486s-.187-15.031 0-19.14c.187-4.108.28-10.363.374-14.191s-.094-7.749-1.404-10.83c-.467-.841-1.777-.841-2.9-.561a12.3 12.3 0 0 0-3.743 0c-1.684-.186-3.368-.28-3.368.187"/><path fill="#4F9BFF" d="M359.31 197.421c-.468-.747-1.404-.84-2.433-.653-.842 4.015 2.245 9.336 2.245 9.336-2.152 2.428-3.087 3.735-3.555 5.322 2.807 3.828 0 8.59 0 8.59a28.2 28.2 0 0 1 2.62 8.496 2.7 2.7 0 0 0 2.058.654c0-2.801 0-5.416.094-6.723.187-4.201.28-10.363.374-14.191s-.094-7.75-1.403-10.831"/><path fill="#63CBFF" d="M357.719 227.952c-3.93-4.575-2.994-9.804-2.714-13.445.053-1.047.242-2.082.562-3.081l-.562-.653c.691-2.485.689-5.11-.003-7.594a14.2 14.2 0 0 0-3.927-6.505c-1.029 0-1.777.094-1.777.374 3.742 3.174 3.462 5.695 3.555 12.324v14.005c-.093 3.454 0 15.965 0 17.926a2.34 2.34 0 0 0 1.123-.654c3.93-2.987 4.866-7.562 4.211-12.137z"/><path fill="#63A6FF" d="M355.567 211.426c-.32.999-.508 2.034-.561 3.081-.281 3.642-1.217 8.87 2.713 13.445l.468.56a28.2 28.2 0 0 0-2.62-8.496s2.807-4.762 0-8.59"/><path fill="#33705E" d="M344.619 260.443c.655-12.231 4.491-21.474 10.386-22.501.187-12.231 5.802-15.685 10.386-15.965 4.585-.281 6.925 4.481 6.925 11.297v38.186h-27.697z"/><path fill="#966290" d="m303.916 202.09 1.029 14.845-3.555 13.351-2.527 15.685h8.889l4.118-17.646s2.339-8.683 3.181-10.643l-2.527-15.592.281-4.762-4.491.187-.187 2.334zm-13.661-3.642v8.777l-1.965 17.552v20.354h2.807v-20.727l3.462-18.02 1.216-8.309z"/><path fill="#7D456E" d="M340.97 248.492c.404 4.445.342 8.92-.187 13.351l-1.591-.466c.749-5.136 1.029-12.605 1.029-12.605z"/><path fill="#528C75" d="M342.654 250.359h6.176c-.936-1.68-3.088-2.054-5.895-2.24a34.5 34.5 0 0 1 4.023-3.268c-2.62-1.494-5.894.373-6.643 2.801-2.62-2.148-6.269-1.961-8.141.56a17.5 17.5 0 0 1 5.521.654c-2.714 1.773-2.714 2.334-3.369 4.014l6.083-1.96 3.836 4.014a3.824 3.824 0 0 0-1.591-4.575"/><path fill="#528C75" d="M334.42 259.229c-2.433-12.417-6.737-19.513-21.708-15.498-2.714-6.443-10.199-5.882-14.784-.841-16.843-9.243-34.434-4.481-35.276 31.745l35.276 4.855 55.393-6.629c-2.246-13.352-12.912-16.993-18.901-13.632"/><path fill="#58A67E" d="M291.471 252.413a3.74 3.74 0 0 1 4.304-2.054s1.778-3.361 3.93-2.427a14.1 14.1 0 0 0-3.087 3.921z"/><path fill="#856987" d="M283.144 248.866c1.03 7.656 0 17.272 0 17.272l-2.059-.56c.936-6.722 1.123-16.339 1.123-16.339z"/><path fill="#58A67E" d="m280.617 249.239-6.176 1.681c.655-2.615 3.088-3.828 6.27-3.081-.936-.934-3.369-4.109-3.369-4.109a6 6 0 0 1 5.333 3.642 6.37 6.37 0 0 1 6.925 1.4h-5.147c3.088 1.587 2.901 3.268 3.088 5.322l-4.398-3.361-4.117 4.668s-.374-4.481 1.591-6.162m2.807 10.924c-4.585-.654-8.234 2.054-9.918 7.002-4.211-.28-5.989 2.801-6.176 7.189h24.141c.281-5.695-.748-9.056-2.807-9.616.094-2.428-1.778-4.108-5.24-4.575"/><path fill="#468069" d="M296.711 263.617c0-8.776 1.684-12.884 6.456-13.164s5.708 5.228 5.427 8.683c2.808 0 4.96 1.68 5.147 5.602.187 3.921 0 11.11 0 11.11l-17.03 1.027z"/><path fill="#754465" d="M312.15 233.087c3.556 17.739 2.433 40.521 2.433 40.521l-4.866-.934c1.217-15.966.375-40.054.375-40.054z"/><path fill="#58AC77" d="m306.068 232.34-12.351 3.828c2.058-5.135 5.053-7.376 12.632-9.056-2.714-2.334-9.17-5.976-9.17-5.976 4.023-1.307 10.48-.84 15.907 4.389 4.865-2.428 8.983-2.148 16.842 3.174-4.795.174-9.56.831-14.222 1.961 5.988 4.295 8.14 8.029 6.175 14.285l-10.386-9.71-9.45 12.044s-.562-9.057 4.023-14.939"/><path fill="#754465" d="m340.502 205.731-3.93 5.508-1.684 7.75s5.895-6.723 8.702-7.936v-9.617h-2.152z"/><path fill="#FFFAE6" d="m332.549 135.707 2.432-1.027-2.432-1.027-1.03-2.334c-.093-.094-.093-.094-.093 0l-1.123 2.334-2.433 1.027 2.433 1.027 1.123 2.334h.093z"/><path fill="#B8A3FF" d="m355.286 168.851 1.31-.56c.093 0 .093 0 0-.093l-1.31-.56-.562-1.307-.654 1.307-1.31.56 1.31.56.654 1.307.562-1.307z"/><path fill="#FFFAE6" d="m297.834 159.702 2.059-.934-2.059-.934-.936-2.054h-.093l-.936 2.054-2.058.934 2.058.934.936 2.054h.093z"/><path fill="#2F6653" d="M352.198 264.084c.468-9.99 7.111-12.697 11.322-10.737 4.211 1.961 4.211 10.831 4.211 13.725 1.59.28 2.807 2.147 3.088 6.162h-18.621s-.187-3.361 0-9.15"/><path fill="#966290" d="m316.548 210.773.936 5.415.187 1.774.936-2.334v-6.256zm4.211-1.681v2.801l1.404-1.4v-2.241z"/><path fill="#6EAC8D" d="m332.174 202.183-4.865 4.762s-9.077 3.361-10.761 3.828c1.123-3.455 5.895-6.349 7.673-6.909s5.146-3.268 7.86-2.054a.192.192 0 1 1 .093.373"/><path fill="#528C75" d="m325.25 205.077 2.62-1.027-4.024.654z"/><path fill="#528C75" d="M320.759 206.571c0-2.521-.188-4.762 1.029-5.135.093-2.708 1.123-2.988 1.965-2.334s.655 3.548.655 3.548l.842 2.427z"/><path fill="#9891FF" d="M298.115 193.967a.841.841 0 1 0 0-1.681.84.84 0 0 0-.843.84c0 .465.378.841.843.841m3.462 0a.84.84 0 0 0 .843-.841.842.842 0 0 0-1.685 0c0 .465.377.841.842.841" opacity=".63"/><path fill="#78426A" d="M372.316 273.327V368H120.238c-.375-3.268-.842-6.536-1.217-9.71-.093-1.401-.28-2.801-.468-4.202-.187-1.4-.093-1.4-.187-2.054-.093-.653-.28-2.707-.468-4.108-.374-3.454-.748-6.909-1.029-10.083a14 14 0 0 0-.187-1.961c0-.654-.094-1.307-.094-1.867s-.187-1.961-.28-2.801-.094-2.054-.187-3.081c-.094-1.027-.188-2.148-.188-3.175a63.4 63.4 0 0 1 .562-14.378 23.3 23.3 0 0 1 6.737-12.884.1.1 0 0 0 .066-.028.1.1 0 0 0 .028-.066h.093c6.737-6.442 18.433-11.017 38.177-16.619 30.597-7.096 86.646-8.683 116.588-8.216 5.427.187 10.854 1.961 16.188 1.587 19.182-1.587 36.305-.747 54.926-.093 7.392 0 14.971-.84 23.018-.934"/><path fill="#703E64" d="M257.973 310.487a81 81 0 0 0-1.123 11.857 33.55 33.55 0 0 1-3.649 15.312c-2.526 5.322-16.843 16.619-17.123 17.46-.281.84-1.03 10.363-1.31 12.884h-8.89a67 67 0 0 0 .281-8.963c-.187-3.081 8.702-19.14 9.076-22.781.263-4.29.294-8.591.094-12.885-.094-2.707-2.339-12.884.374-25.862l26.668-1.68z"/><path fill="#8F516F" d="M308.875 294.521c-2.339 8.496-3.368 14.098-3.368 15.966s-4.585 5.695-6.176 8.029-2.339 2.428-2.526 5.789-4.866 23.434-4.866 23.434l-16.281 6.069s2.994-12.417 3.555-16.432c.562-4.015 2.246-9.337 2.246-11.297s.094-3.361 2.433-5.509c2.339-2.147 6.831-7.656 8.889-9.336 2.059-1.681 2.152-2.801 2.994-6.349l3.743-14.005z"/><path fill="#5A3C5C" d="M224.381 327.666c.094 4.668-.655 12.511-.655 12.511s-2.9 5.695-3.743 8.216a55 55 0 0 0-2.152 7.749c-.28 2.148-.093 3.548-4.585 0-4.491-3.547-8.889-6.068-10.292-7.936-1.404-1.867-.936-2.801-.749-5.228.187-2.428-.187-8.963-.187-8.963z"/><path fill="#543857" d="m337.788 288.919 34.528-3.547V368h-43.885l-.187-8.963-14.316-13.538 7.205-51.631.468-3.361z"/><path fill="#5A3C5C" d="m353.227 298.256 19.089-3.828v40.147l-2.339-1.027c-8.515-3.734-9.451-2.427-11.79-7.189-2.339-4.761-5.521-10.457-9.077-21.007a5.52 5.52 0 0 1 .472-4.464 5.53 5.53 0 0 1 3.645-2.632"/><path fill="#AB576F" d="M200.427 327.013c0 .84-6.55 4.574-6.643 5.415-.468 5.228-.281 9.243-.468 11.297s-5.334 6.722-6.269 8.59-2.714 4.855-3.088 15.312V368h-63.441c-1.871-15.779-3.742-32.304-4.21-43.042-.375-6.535-.187-11.857 1.029-16.432a22.6 22.6 0 0 1 6.269-11.017l74.763-7.282-3.088 17.832v.841c1.123 4.855 4.772 13.444 5.146 18.113"/><path fill="#78426A" d="M195.281 308.9v-.841l1.31-7.282-9.263 1.4c.374 17.273-.936 25.863 4.772 23.435 2.526-1.12 3.93-5.975 4.865-11.204a50 50 0 0 1-1.684-5.508"/><path fill="#964D66" d="m150.929 331.867-1.03 4.949v5.135c0 .373-.561 3.548-.561 3.548-.094 3.174-.187 6.629-.655 7.376s-4.491 5.508-4.866 7.376c-.374 1.867-.842 4.481-1.403 7.749h-2.527c.375-2.988.749-5.882.749-6.629s-.187-1.867 1.31-3.921 4.772-5.696 5.053-6.069.093-3.641 0-6.816c-.094-1.214-.187-8.683-.187-8.683l.935-7.376c-.468-1.774-1.59-5.602-1.59-7.936s.093-8.869.561-14.471h1.216s.655 6.815.655 9.056a83 83 0 0 0 1.123 10.924c.562 3.174 1.217 4.481 1.217 5.788M163.935 368H146.25c.749-2.708 1.684-5.509 2.994-6.442 1.31-.934 6.457-3.828 10.948 1.307a32 32 0 0 1 3.743 5.135"/><path fill="#C46375" d="M178.626 347.927a40 40 0 0 0 0 4.948 48 48 0 0 1-.094 6.255c-.281 2.521-.561 5.322-.561 6.163 0 .84.187-.094 1.403-2.055a63 63 0 0 0 4.211-7.095c.561-1.401.281-1.774.468-2.801s-1.591-6.536-1.591-6.536zm-43.324 9.616c-.093 1.307-1.216 4.668-1.59 8.87a10.5 10.5 0 0 1-.187 1.587h-2.153v-12.791c0-1.681-.374-5.509 0-7.283.375-1.773 1.872-2.614 3.088-3.267a.563.563 0 0 1 .76.193.55.55 0 0 1 .082.274c0 4.201.094 11.203 0 12.417"/><path fill="#964D66" d="M150.18 304.512c1.684 10.363 2.246 11.95 2.433 13.257s5.614 3.268 10.012 5.042 9.918 4.108 11.416 4.202c1.497.093 2.713-3.455 3.93-5.882 1.216-2.428 4.397-8.123 4.772-8.963.374-.841 3.649-11.018 3.649-11.018z"/><path fill="#78426A" d="M168.239 305.165c.281 13.164-.935 19.793 4.398 17.926s5.708-19.14 5.708-19.14z"/><path fill="#8A475E" d="M153.736 306.659a1.58 1.58 0 0 0 1.403 1.12 49 49 0 0 1 5.24.747 30 30 0 0 0 5.521-.373c1.778-.28 2.807-1.681 4.117-2.054a6.55 6.55 0 0 0 2.433-1.868h-19.369z"/><path fill="#D66D8A" d="M125.758 326.079a23 23 0 0 1-.655 4.855c-.655 2.241-2.713 5.602-3.181 7.656a23.5 23.5 0 0 0-.936 5.415c0 1.961 2.059 8.31 2.433 12.418s.936 8.496 1.216 11.577h-4.397c-.375-3.268-.843-6.535-1.217-9.71-.093-1.4-.281-2.801-.468-4.201-.187-1.401-.093-1.401-.187-2.054-.093-.654-.281-2.708-.468-4.108-.374-3.455-.748-6.909-1.029-10.084a14 14 0 0 0-.187-1.961c0-.653-.094-1.307-.094-1.867s-.187-1.961-.28-2.801-.094-2.054-.187-3.081c-.094-1.027-.188-2.147-.188-3.174-.187-2.988-1.122-7.096-1.122-9.99a3.26 3.26 0 0 1 .374-1.588c.265-.398.456-.841.561-1.307.375-.653.562-1.12.749-1.494a4.5 4.5 0 0 0 .468-2.054h.374l8.421 1.027c-.093 5.882 0 15.312 0 16.526"/><path fill="#5FA38B" d="M164.59 273.701c-.468-3.735-6.082-4.669-6.924 1.4-4.959-2.241-5.989 4.482-3.743 7.843l17.03-4.108c4.023-6.442-2.714-6.629-6.363-5.135"/><path fill="#85C28D" d="M372.316 270.526v20.354l-34.434.747a83 83 0 0 0-16.749 2.241l-3.088.933c-8.328 2.988-13.568.467-25.264-.84 0 0-30.691 2.801-41.732 4.668a133.5 133.5 0 0 1-32.843 1.494c-11.229-.84-15.627-.187-21.709 1.027s-21.334 3.175-28.258 4.015a57.3 57.3 0 0 1-10.386.28 25.3 25.3 0 0 0-8.328 1.12c-3.462 1.121-8.515 2.708-13.1 3.922-8.047 2.147-9.544-1.027-19.93 0 .187-2.148.093-3.735.655-5.135 1.123-3.081 2.058-5.696 6.082-7.75a.09.09 0 0 0 .086-.057.1.1 0 0 0 .008-.036h.093c7.766-9.523 24.328-13.631 24.796-13.725a1087 1087 0 0 1 25.732-6.255c7.673-1.774 13.38-2.334 15.533-2.334a5.5 5.5 0 0 1 1.777.186l10.761-1.12 7.299-.56c3.742-.374 7.579-.56 11.415-.841l4.024-.28c8.982-.56 18.152-1.027 27.322-1.307 48.095-2.054 97.032-1.214 120.238-.747"/><path fill="#6EAC8D" d="M372.316 290.88v-20.353l-11.79-.187c-17.872 1.12-23.767 5.975-27.416 8.029-24.235.56-36.399 4.482-44.727 16.059l4.398-.467c11.696 1.307 16.936 3.828 25.264.841l3.088-.934a83 83 0 0 1 16.749-2.241z"/><path fill="#FFFAE6" d="m148.309 251.293 2.152-.934c.094 0 .094-.093 0-.093l-2.152-.934-.936-2.147h-.093l-1.03 2.147-2.152.934 2.152.934 1.03 2.241h.093l.936-2.241z"/><path fill="#6EAC8D" d="M134.741 299.563c-8.047-1.027-11.977 1.027-13.193 4.668zm89.64 28.103c-11.602 6.722-30.597 13.631-39.299 18.3-8.702 4.668-8.983 3.361 1.029-10.831s20.96-9.056 20.96-9.056 13.474-12.044 17.31 1.587"/><path fill="#85C28D" d="m190.041 336.909 9.825-9.243c-4.211 0-7.766 1.027-9.825 9.243"/><path fill="#528C75" d="M207.071 326.079a9.5 9.5 0 0 0-2.059-.654 9.69 9.69 0 0 0-2.058 8.31c-5.708 2.801-7.954 3.734-8.702 5.415-.418.92-.702 1.894-.842 2.894 9.544-4.294 22.269-9.43 30.971-14.378-3.836-13.631-17.31-1.587-17.31-1.587"/><path fill="#B0728D" d="M134.835 315.155a13.6 13.6 0 0 1-2.152 5.975c-.842 1.587-1.685.467-1.497-2.147s-.281-4.949.842-4.855 2.994-.374 2.807 1.027"/><path fill="#CCBDFF" d="m170.391 340.831 4.305-1.868c.093-.093.093-.186 0-.186l-4.305-1.961h-.093l-1.965-4.388h-.187l-1.872 4.388h-.093l-4.304 1.961c-.094 0-.094.093 0 .186l4.304 1.868h.093l1.872 4.294h.187l1.965-4.294a.1.1 0 0 1 .047-.013q.024 0 .046.013"/><path fill="#FFF5CF" d="m158.976 355.302 2.433-1.027c.093-.093.093-.093 0-.093l-2.433-1.121h-.094l-1.029-2.52h-.094l-1.123 2.52-2.526 1.121 2.526 1.027 1.123 2.427h.094l1.029-2.427q0 .018.007.036a.1.1 0 0 0 .051.05.1.1 0 0 0 .036.007"/><path fill="#6EAC8D" d="M372.316 287.052v3.828l-34.434.747a83 83 0 0 0-16.749 2.241l-3.088.934c-8.328 2.987-13.568.466-25.264-.841 0 0-30.691 2.801-41.732 4.669a133.6 133.6 0 0 1-32.843 1.493c-11.229-.84-15.627-.186-21.709 1.027-6.082 1.214-21.334 3.175-28.258 4.015a57 57 0 0 1-10.386.28 25.3 25.3 0 0 0-8.328 1.121c-3.462 1.12-8.515 2.707-13.1 3.921-8.047 2.147-9.544-1.027-19.93 0 3.556-1.587 8.234-2.147 16.468-3.548 3.93-.653 10.199-2.241 14.504-2.801s7.298-1.027 10.947-1.4c6.737-.561 13.007-1.214 18.434-1.961l6.456-.934c5.146-2.707 11.135-2.334 13.568-.933h.093c11.884-4.949 21.428-1.681 23.393-1.401 6.924-1.587 14.129-.653 15.345 0 6.737-1.68 16.937-3.268 21.896-2.894 12.632-1.494 26.293-3.455 29.568-3.175s13.287-.186 16.749 1.774c4.117-.84 8.983-3.174 11.977-1.867 6.456-1.774 16.936-3.548 21.895-2.427h.562c5.801-.841 21.989-1.681 33.966-1.868m-219.328 4.482c12.257-2.895 15.251-4.482 15.064-4.762s-2.994-.373-10.48 1.027c-7.485 1.401-4.584 3.735-4.584 3.735"/><path fill="#8483B8" d="M159.818 289.106c-2.994-13.164-8.328-19.046-14.691-19.14-6.362-.093-10.012 13.445-10.386 24.555 0 0 3.368-.093 13.568-1.96 10.199-1.868 11.509-3.455 11.509-3.455"/><path fill="#8D8CC4" d="M148.87 277.902c-1.31-3.174-5.053-6.162-8.608-4.855a12.4 12.4 0 0 0-1.685 2.894c4.679-1.493 4.679 4.015 4.96 8.964 3.368-1.027 7.953-.467 9.45 6.628a48 48 0 0 0 4.959-1.4h.375c-.749-5.602-4.679-12.138-9.451-12.231"/><path fill="#D3E890" d="M157.104 295.829c1.778-4.389 7.299-5.509 9.17-2.801z"/><path fill="#9190C9" d="M138.578 282.851c-1.498.653-1.591 2.894-1.03 4.668.562 1.774 2.153.56 2.06-1.12-.094-1.681.093-4.108-1.03-3.548"/><path fill="#B9E08B" d="M146.812 291.534c-.094-3.268-1.123-6.629-3.088-6.069s-.749 3.921-.281 5.789c0 0-1.31-1.308-2.526-.281-1.217 1.027-.281 3.268 2.526 4.575l4.866-1.027c3.368-4.388-.468-5.788-1.497-2.987"/><path fill="#5E78EB" d="M145.127 269.966c-5.427-.747-6.83-3.734-4.117-3.641s4.959 2.801 4.959 2.801z"/><path fill="#1A2D3B" d="M145.502 269.126c-1.872-.467-2.995-.747-3.088-.093-.094.653-.094 1.213 3.181.933z"/><path fill="#3958DE" d="M145.502 270.059a1.96 1.96 0 0 1-.936-1.587c.281-4.761 2.526-6.909 3.368-4.295.466 1.24.811 2.522 1.03 3.828 4.678-.56 2.994 2.708 0 2.801a6.1 6.1 0 0 1-3.462-.747"/><path fill="#92D18F" d="M279.494 277.435c-.281-6.628-2.994-9.056-4.398-9.71-1.403-.653-1.497 1.868.187 5.416-4.117-2.615-5.614-1.774-5.801-.654s2.994 2.801 4.959 3.828c-4.21-.84-8.421.374-2.526 2.428a51 51 0 0 0 7.953 2.427z"/><path fill="#8C7CA6" d="M273.693 282.104c.748-7.283 5.333-8.496 5.333-8.496.094-3.268 1.778-6.162 3.93-6.349s5.521 1.027 8.515 3.921 5.708 2.801 5.708 7.75c-6.644 1.68-20.024 5.135-23.486 3.174"/><path fill="#7A6D91" d="M293.81 279.77a4.3 4.3 0 0 0-1.59-3.922c-2.059-1.867-2.62-1.493-2.62-1.493a8 8 0 0 0 1.216-3.735c-2.807-2.427-5.801-3.641-7.86-3.361a3.47 3.47 0 0 0-2.433 1.587c2.153-.934 5.802.654 6.737 3.361-2.994.56-2.994 3.081-2.9 4.668 1.965-1.493 5.988.281 6.082 1.961q.106.884.093 1.774z"/><path fill="#A293BA" d="M278.371 275.288c-1.778.934-1.684 1.961-1.684 2.241s1.216-.654 2.246-1.121c1.029-.466 1.965-2.427-.562-1.12"/><path fill="#549981" d="M345.274 276.035c1.403-2.147 6.082-2.521 8.796-.56z"/><path fill="#CFE08B" d="M289.6 287.145a50.2 50.2 0 0 0-2.901-13.631c-.749-1.681-.748-.374.281 2.801a108 108 0 0 1 1.965 10.644z"/><path fill="#CFE08B" d="M292.875 277.156c.655-1.588.842-1.027.468-.28a71 71 0 0 0-3.743 10.27h-.375a64 64 0 0 1 3.65-9.99"/><path fill="#6EAC8D" d="M286.044 287.145c-3.556-2.334-15.72-3.361-18.62 2.801z"/><path fill="#CFE08B" d="M220.607 290.421c.977-.102 1.751-.352 1.729-.557s-.831-.288-1.807-.186c-.977.103-1.751.352-1.729.557s.831.289 1.807.186"/><path fill="#85C28D" d="M318.326 286.305c.748-.747 2.058 0 2.9 1.027l-6.737.28c.468-1.213 2.152-1.867 3.837-1.307"/><path fill="#CFE08B" d="M133.431 292.654a39.5 39.5 0 0 0-3.462-9.803 18.84 18.84 0 0 0 3.462 9.803"/><path fill="#CFE08B" d="M133.431 292.654a39.2 39.2 0 0 1-.936-10.644c.281-1.12.468-1.493.562 1.121s.843 9.43.843 9.43z"/><path fill="#6EAC8D" d="m292.501 294.055-3.182.281z"/><path fill="#549981" d="M337.788 288.919c-4.959-1.12-15.439.654-21.895 2.428-2.994-1.307-7.86 1.027-11.977 1.867-2.62-1.494-8.889-1.587-13.287-1.68l-2.246 2.894h.936l3.181-.28h.281c11.696 1.307 16.936 3.828 25.264.84l3.088-.934a83 83 0 0 1 16.749-2.24l34.434-.747v-3.828c-11.977.186-28.165 1.027-33.966 1.96z"/><path fill="#85C28D" d="M334.607 271.647h-15.72c-1.497-1.681-1.684-7.469 2.339-7.096 0-3.921 5.615-5.042 6.176-1.214 4.866-1.867 6.737.374 6.456 2.895 6.831-2.521 5.895 3.361.749 5.415"/><path fill="#528C75" d="M372.316 272.394c-2.994-1.401-12.539.093-11.322 6.722-9.076-.187-7.299 3.641-7.299 3.641h18.621z"/><path fill="#8F516F" d="M312.15 368h-3.556c-.187-1.68-.28-3.268-.28-4.108s.28-9.15.28-9.15l2.527.374c.052 4.185.365 8.364.935 12.511z"/><path fill="#5C3A5B" d="M257.973 351.381c0 2.521.468 5.789.562 7.002.093 1.214.935.561 1.965-1.213a20 20 0 0 0 1.777-3.922 25 25 0 0 0 0-3.828zm38.925 6.909-2.152 5.135-.374 1.307-.749 3.268h-1.591l1.123-3.361.468-1.401s1.685-4.574 1.778-5.135c.094-.56-.374-8.683-.374-8.683l1.871.467c.094 2.334 0 8.403 0 8.403m-16.468-7.749s-.655 8.402-1.123 9.429-1.31 5.136-2.058 7.283a3 3 0 0 1-.188.747H263.4v-.187l.842-5.602v-10.83z"/><path fill="#874D69" d="M289.413 334.295c.935-5.975 1.965-11.764 2.9-13.445.936-1.68 1.685-2.614 3.743-4.855 2.059-2.24.842-.747.842.561 0 1.307-1.029 2.054-1.403 4.294-.375 2.241-1.217 9.057-1.217 9.057l-.655 6.069z"/><path fill="#8F516F" d="M254.604 362.865c-.28.747-1.59 2.987-2.807 5.135h-6.737c1.123-1.867 2.246-4.388 2.246-5.135v-10.177l4.679-2.147s1.122 3.547 1.777 6.255 1.497 4.668.842 6.069"/><path fill="#357562" d="M372.316 343.912V319.73c-28.913.467-48.095 4.015-63.254 7.936-17.404.56-27.135 2.801-32.281 6.256-17.966 1.96-20.024 3.921-28.727 16.619-2.432 3.547-.374 2.52 11.042 1.307 11.415-1.214 29.381-1.307 37.802-1.027 6.924 6.162 11.603 6.255 21.147 4.108 7.766-1.681 21.802-4.202 21.802-4.202 13.661-1.12 32.469-1.867 32.469-1.867z"/><path fill="#75745B" d="M341.531 321.877c-3.93-5.882-3.649-15.592 2.152-13.538-.468-8.963 8.515-8.683 8.796-1.96 4.211-3.548 9.076-2.521 6.737 3.081 2.994-2.148 7.486-1.961 7.018 3.361s-8.235 9.056-8.235 9.056z"/><path fill="#6B6A47" d="m352.292 321.037-.281-.187a.465.465 0 0 1-.094-.653 9.8 9.8 0 0 0 1.591-2.615.735.735 0 0 0 .046-.9.75.75 0 0 0-.233-.22c-.468-.373-1.591-.373-2.807.56a.57.57 0 0 1-.562 0 .38.38 0 0 1-.184-.197.38.38 0 0 1-.003-.27s.281-1.587.562-4.761c.187-1.121-.187-1.961-.936-2.241a.844.844 0 0 0-1.029.373l-.281.187c-.187.094-.281.094-.374 0a1.22 1.22 0 0 0-.842-.093c-.655.373-1.03 1.494-1.123 2.988-.094 1.493-.094.28-.281.373a.375.375 0 0 1-.468 0 1.4 1.4 0 0 0-1.59-.187 1.68 1.68 0 0 0-.843 1.868.56.56 0 0 1-1.029.093 2.98 2.98 0 0 1 1.404-2.894c.622-.267 1.32-.3 1.965-.094.187-1.96 1.029-2.707 1.497-2.987a1.87 1.87 0 0 1 1.403-.094 1.97 1.97 0 0 1 1.872-.467c.936.28 1.871 1.307 1.684 3.362-.187 2.054-.374 2.894-.468 3.734a3 3 0 0 1 3.088 0 1.864 1.864 0 0 1 .468 2.241 11 11 0 0 1-1.778 2.894z"/><path fill="#3B8264" d="M364.737 336.629s-1.591-6.162-12.539-7.189c-10.947-1.027-38.551 5.415-45.943 4.481-7.392-.933-11.135 3.642-13.474 8.964-4.959-.187-10.293 1.68-15.532 7.655v.281c7.579-.187 14.971-.187 19.556 0 6.924 6.162 11.602 6.255 21.147 4.108 7.766-1.681 21.801-4.202 21.801-4.202 13.662-1.12 32.469-1.867 32.469-1.867v-12.231z"/><path fill="#2F6653" d="M357.345 341.298c-2.34-8.403 2.713-19.327 14.971-18.86v18.86z"/><path fill="#8483B8" d="M298.582 340.457c2.433-9.523 2.62-15.405 11.416-18.393a88 88 0 0 1 2.339-14.938c.936-3.922 1.497-6.536 7.392-5.415 2.901.56 10.761 5.788 10.761 5.788s9.17 3.548 11.977 5.509c5.24 3.734 6.269 8.403 6.83 13.725.33 2.318.455 4.661.375 7.002 0 0-21.615-.84-51.09 6.722"/><path fill="#7978A8" d="M315.332 313.194c2.433.654 4.023 6.349 4.023 9.057 4.96.093 8.889 7.562 8.889 12.231v.466a162 162 0 0 1 21.428-1.213c.054-1.09.023-2.183-.094-3.268-2.339-2.614-8.701-2.241-11.134-.654l-1.872-6.068c-1.216-3.922-6.363-4.669-12.445-4.669 0 0-1.122-3.548-2.526-7.189s-6.643-5.228-9.263-4.762c-.375 1.774-.843 3.735-1.217 5.883a10.4 10.4 0 0 1 4.211.186"/><path fill="#4F5C7D" d="M324.127 335.416c2.901-4.389 8.328-5.882 11.042-4.202 2.713 1.681 4.397 5.602 4.397 5.602s2.62 0 3.182.934l-19.931 1.587c.562-2.054.562-2.708 1.31-3.921"/><path fill="#2F6653" d="M310.653 333.455c-4.491-.187-7.486 4.948-4.678 8.589h8.14c2.339-2.801.936-8.309-3.462-8.589"/><path fill="#43435E" d="m271.634 330.934 2.62 1.587 3.182-1.027 2.62-3.081-6.082.934z"/><path fill="#B85571" d="M287.354 322.344c.374-2.707 2.526-5.042 5.801-4.201 3.275.84 3.743 6.722 6.27 8.309 0 0-.281 5.976-7.299 6.442z"/><path fill="#8B8AC2" d="M290.629 339.617c-19.182 1.307-22.644 1.4-22.644 1.4a51.6 51.6 0 0 1 2.433-7.562c1.965-.841 7.111-2.521 7.111-2.521l.281-.747a44 44 0 0 0-6.176.747c4.866-9.243 11.322-10.084 15.72-8.59 5.801 1.868 7.954 5.696 3.275 17.273"/><path fill="#8181B5" d="m265.739 341.297 18.527-1.213c.375-1.027.749-2.335 1.217-3.642 1.029-2.801 1.871-5.695-.562-6.349s-4.21 1.681-5.053 4.295l-12.351 1.027c-.281.841-1.497 4.762-1.778 5.882"/><path fill="#67668F" d="M284.471 333.446c.411-.89.172-1.874-.532-2.197-.705-.324-1.609.136-2.019 1.026s-.172 1.874.533 2.197c.704.323 1.608-.136 2.018-1.026"/><path fill="#5C5B80" d="m268.64 336.629-1.029 3.361 1.217-.186.748-3.362zm2.62-.28-.749 3.268 1.124-.093.655-3.268z"/><path fill="#2F6653" d="M272.102 342.138c2.714-2.988 6.831-3.268 8.422-2.428 1.777-2.054 5.801-1.961 5.894 1.027-7.579.467-14.316 1.401-14.316 1.401"/><path fill="#5C5B80" d="m274.161 336.162-.562 3.175 1.311-.094.561-3.267z"/><path fill="#A5A4DB" d="M280.056 328.413a31.4 31.4 0 0 0-7.58 1.027l-.842 1.494a44 44 0 0 1 6.176-.747l-.281.747s-5.146 1.681-7.111 2.521a5.2 5.2 0 0 0-.375 1.12l8.703-2.521z"/><path fill="#CCBDFF" d="m275.377 321.41 1.778-.746c.094 0 .094-.094 0-.094l-1.778-.747-.842-1.774-.842 1.774-1.778.747c-.094 0-.094.094 0 .094l1.778.746.842 1.774z"/><path fill="#8181B5" d="M286.138 322.717c2.152.467 3.181 1.868 3.274 2.988.094 1.12-1.497 1.307-2.9.093-1.404-1.213-2.807-3.641-.374-3.081"/><path fill="#A5A4DB" d="m268.36 335.416-1.404 5.788-1.217.094 1.685-5.882z"/><path fill="#5C3A5B" d="M300.828 368h-14.41c1.591-2.334 3.462-3.455 5.427-3.455h2.527c2.62.654 5.146 1.681 6.456 3.455m71.488-15.592v10.177c-4.211 2.428-4.866 2.988-5.895 5.415h-21.615q.617-1.218 1.404-2.334c1.59-2.334 1.965-2.614 6.363-5.042a153 153 0 0 1 19.743-8.216"/><path fill="#4B8F69" d="M250.3 331.307a3.36 3.36 0 0 0 0 4.762 39.3 39.3 0 0 1 6.457 9.617l1.965-2.428a48 48 0 0 0-2.901-10.924 3.45 3.45 0 0 0-2.497-1.922 3.46 3.46 0 0 0-3.024.895"/><path fill="#4B8F69" d="M248.99 339.524c6.55 1.4 9.731 3.734 9.731 3.734l-1.965 2.428a21.8 21.8 0 0 0-8.234-1.401 2.42 2.42 0 0 1-1.867-.837 2.43 2.43 0 0 1-.565-1.964 2.32 2.32 0 0 1 1.007-1.632 2.4 2.4 0 0 1 .911-.367c.327-.056.661-.043.982.039"/><path fill="#4B8F69" d="M260.032 337.283a84 84 0 0 0-1.31 5.975l-2.995.373a22.1 22.1 0 0 1 .281-7.282 1.963 1.963 0 0 1 2.526-1.494 2.053 2.053 0 0 1 1.498 2.428"/><path fill="#3B826D" d="M257.131 344.098h-.187a36.3 36.3 0 0 0-8.702-1.961c-.281 0-.468-.28-.375-.466a.47.47 0 0 1 .468-.467c2.758.321 5.482.884 8.141 1.68-.374-1.213-1.497-3.921-4.492-9.243a.56.56 0 0 1 .188-.653.373.373 0 0 1 .655.186c4.585 8.123 4.772 10.364 4.865 10.457a.46.46 0 0 1-.28.467z"/><path fill="#3B826D" d="M257.131 344.098a.56.56 0 0 1-.468-.56s.281-3.921.843-7.562a.47.47 0 0 1 .468-.467.56.56 0 0 1 .468.56c-.562 3.641-.749 7.563-.749 7.563a.57.57 0 0 1-.194.337.57.57 0 0 1-.368.129"/><path fill="#6B6A47" d="M358.467 313.475h-.187a.468.468 0 0 1-.281-.654c.468-.934.375-1.214.281-1.214s-.935-.186-1.497-.186h-.187a.56.56 0 0 1-.561-.467c0-.28-.094-.841-.468-.934-.375-.093-1.404.56-1.778 2.054a.66.66 0 0 1-.655.374.56.56 0 0 1-.281-.654c.468-1.867 1.778-2.801 2.807-2.708a1.585 1.585 0 0 1 1.31 1.401c.936-.093 1.778 0 2.152.56s.281 1.121-.28 2.148c-.562 1.027-.188.28-.375.28"/><path fill="#BBD0FF" d="M170.672 311.234a77.4 77.4 0 0 1-12.257-1.121 8.87 8.87 0 0 1-3.556 5.509 1.027 1.027 0 0 0 .561 1.867c5.615.467 9.077.56 13.287-.747a2.14 2.14 0 0 0 1.497-1.867z"/><path fill="#DEE8FF" d="M159.537 310.113c-1.029 2.335-2.62 4.762-1.216 4.855 1.403.094 3.368-2.8 3.649-4.108s-2.433-.747-2.433-.747"/><path fill="#BBD0FF" d="M181.9 324.585c4.117-1.68 6.925-2.987 8.702-5.788a3.1 3.1 0 0 0 .562-1.774c.093-1.588.093-3.175.187-4.575-2.339 1.68-6.176 2.707-12.445 2.147a32 32 0 0 1-1.403 7.936c-.842 3.268-.094 3.922 4.397 2.054"/><path fill="#66A8FF" d="M189.613 315.479c.302-1.147.019-2.215-.631-2.385s-1.421.622-1.723 1.769-.019 2.215.631 2.385 1.421-.622 1.723-1.769m-21.985-3.101c.301-1.147-.224-2.279-1.174-2.527s-1.964.479-2.266 1.627c-.301 1.147.224 2.278 1.174 2.527.95.248 1.964-.48 2.266-1.627"/><path fill="#DEE8FF" d="M181.152 314.501c-.281 3.922-1.497 6.256.655 5.789s3.275-1.867 3.368-6.162z"/><path fill="#5FA38B" d="M203.141 283.598c-16.843 2.334-16.843 15.311-16.468 19.326 2.245-.373 4.21-.653 5.614-1.027l4.21-.747.562-5.602c11.322-4.108 19.369-8.496 22.083-10.363 2.713-1.868 3.929-4.388-16.001-1.587"/><path fill="#2F3A52" d="M206.322 277.342c-6.83 6.256-33.124 21.101-33.124 21.101l-1.403 13.445a92 92 0 0 1-14.503-1.308c.093-.373.093-.747.187-1.213.935-10.084 1.778-17.273 4.304-21.381s14.597-9.71 14.597-9.71z"/><path fill="#242F47" d="m204.732 277.342-28.352.934-3.088 1.4c4.304 1.961 8.608 3.828 8.983 13.538 8.14-4.855 19.369-11.764 23.86-15.685z"/><path fill="#2F3A52" d="M206.603 285.652c-.281 4.295-4.304 7.749-13.568 11.764 0 0-.187 5.975-.561 15.032-2.62 1.96-7.111 3.081-14.41 2.521h-.093c.077-.242.108-.495.093-.747 0-.467-.093-.934-.093-1.401-.188-5.322-.468-12.511-.375-16.152.187-6.256-.374-8.59 12.726-13.258l16-6.069a47 47 0 0 1 .281 8.31"/><path fill="#242F47" d="M206.603 285.652a47 47 0 0 0-.281-8.31l-16.094 6.069-2.433.934c8.515-.841 10.293 3.268 9.264 11.204 6.456-3.268 9.263-6.349 9.544-9.897"/><path fill="#5FA38B" d="M241.505 291.907a232 232 0 0 1 22.269-10.27.955.955 0 0 0 .749-1.121.955.955 0 0 0-1.123-.747c-9.731.187-21.895 1.494-21.895 1.494z"/><path fill="#fff" d="M254.604 254.561H232.99l-2.807 27.636 13.567 1.961c1.819.357 3.667.545 5.521.56a5.44 5.44 0 0 0 4.398-2.521c3.275-5.322 3.462-10.27 3.462-14.938a39.5 39.5 0 0 0-2.527-12.698"/><path fill="#2F4E75" d="m233.738 272.394-2.62.934-.935 8.869 13.567 1.961c1.819.357 3.667.545 5.521.56a5.44 5.44 0 0 0 4.398-2.521 21.9 21.9 0 0 0 3.088-8.869c-4.585-1.494-13.475-2.428-23.019-.934"/><path fill="#fff" d="M232.335 256.802c-5.334 3.174-6.831 5.788-6.831 5.788l4.866 4.108 6.082-4.108z"/><path fill="url(#f)" d="M244.873 210.773c-7.298-.28-8.234 9.056-6.175 19.607l9.357-.561c4.678-11.297 4.117-18.86-3.182-19.046"/><path fill="#8C1C9C" d="M245.248 228.792h-.094a.376.376 0 0 1-.426-.36.37.37 0 0 1 .052-.2 64 64 0 0 1 1.591-8.496.467.467 0 0 1 .562-.28.46.46 0 0 1 .291.262.46.46 0 0 1-.01.391 75 75 0 0 0-1.498 8.31.65.65 0 0 1-.468.373"/><path fill="#8C1C9C" d="M251.049 217.495c-.187-1.494-.749-2.427-1.591-2.614s-3.743 1.12-4.678 2.801l-.374.187c-.094.093-.281 0-.375-.094a1.87 1.87 0 0 0-2.058-.747c-1.404.747-2.339 4.202-.842 11.671.093.187-.094.467-.375.56h-.093a.66.66 0 0 1-.468-.373c-1.404-6.909-.936-11.484 1.31-12.698a2.53 2.53 0 0 1 2.807.467c1.216-1.774 3.556-3.268 5.427-2.708l.655.374a10 10 0 0 1 .655 3.174"/><path fill="url(#g)" d="M245.907 258.282c16.51-.95 29.502-8.481 29.02-16.82s-14.256-14.33-30.765-13.381c-16.509.95-29.502 8.481-29.02 16.82s14.256 14.331 30.765 13.381"/><path fill="#9B28AB" d="M252.118 250.981c2.052-.248 3.585-1.528 3.424-2.859s-1.956-2.209-4.008-1.961-3.585 1.527-3.424 2.858 1.956 2.209 4.008 1.962"/><path fill="#A72CB8" d="M228.613 250.711c.215-1.114-1.256-2.333-3.286-2.723s-3.85.197-4.065 1.311 1.257 2.333 3.286 2.723 3.85-.197 4.065-1.311"/><path fill="#F0C795" d="M230.37 252.32h-.187a9.36 9.36 0 0 1-6.27-3.455c-2.994-3.454-3.555-7.936-1.497-10.176a4.5 4.5 0 0 1 3.275-1.307 8.7 8.7 0 0 1 6.269 3.267c3.182 3.455 3.837 8.216 1.497 10.457a4.4 4.4 0 0 1-3.087 1.214m-4.679-14.005a3.3 3.3 0 0 0-2.526 1.027c-1.778 1.868-1.123 5.882 1.497 8.87a8.33 8.33 0 0 0 5.521 3.174 3.65 3.65 0 0 0 2.62-.933c1.965-1.961 1.216-6.069-1.498-9.15a8.04 8.04 0 0 0-5.614-2.988"/><path fill="#fff" d="M221.762 243.824a.47.47 0 0 1-.468-.467 5.58 5.58 0 0 1 1.123-4.668.56.56 0 0 1 .749 0c.187.093.187.466 0 .653a4.38 4.38 0 0 0-.936 3.921.47.47 0 0 1-.375.561z"/><path fill="#F0C795" d="M244.125 251.854a4.88 4.88 0 0 1-3.088-1.027c-2.62-2.148-2.433-6.91.374-10.831a10.58 10.58 0 0 1 6.457-4.481 5.25 5.25 0 0 1 3.836.84 4.66 4.66 0 0 1 1.965 3.454 10.53 10.53 0 0 1-2.339 7.75 9.9 9.9 0 0 1-6.456 4.201zm-1.965-11.298c-2.433 3.455-2.714 7.75-.468 9.524a3.75 3.75 0 0 0 3.088.747 9.18 9.18 0 0 0 5.801-3.828c1.685-2.241 2.527-4.855 2.152-7.003a4.1 4.1 0 0 0-1.59-2.894 4.22 4.22 0 0 0-3.088-.654 9.82 9.82 0 0 0-5.895 4.108"/><path fill="#fff" d="M240.569 242.797h-.187a.46.46 0 0 1-.235-.286.47.47 0 0 1 .048-.367 9.8 9.8 0 0 1 1.216-2.148 11.3 11.3 0 0 1 1.965-2.241.57.57 0 0 1 .655.094.464.464 0 0 1 0 .653 13.3 13.3 0 0 0-1.871 2.054 10.5 10.5 0 0 0-1.123 1.961.465.465 0 0 1-.468.28"/><path stroke="#2B2F33" stroke-linecap="round" stroke-miterlimit="10" stroke-width="2.085" d="M243.283 245.785a6.93 6.93 0 0 1 4.21-2.055"/><path fill="#2B2F33" d="M230.744 247.559a1.03 1.03 0 0 1-.655-.28 4.22 4.22 0 0 0-3.088-1.401 1.12 1.12 0 0 1-.936-1.027 1.03 1.03 0 0 1 1.03-.934 6.56 6.56 0 0 1 4.304 1.868.935.935 0 0 1 .307 1.069.9.9 0 0 1-.213.331c-.192.216-.461.35-.749.374"/><path fill="#782AA1" d="M237.294 252.881a2.72 2.72 0 0 1-2.433-1.868.47.47 0 0 1 .106-.554.5.5 0 0 1 .175-.099c.281-.187.561 0 .748.28a1.595 1.595 0 0 0 1.404 1.12c.561 0 1.029-.467 1.31-1.307a.654.654 0 0 1 .749-.373.46.46 0 0 1 .291.262.46.46 0 0 1-.011.391 2.62 2.62 0 0 1-2.339 2.148"/><path fill="#4F9BFF" d="m246.745 258.202-13.662 4.668-10.854-4.014c-.093-.094-.187.093-.093.186l7.86 11.204.467.28 10.106 4.295 13.474-4.201a.38.38 0 0 0 .293-.204.38.38 0 0 0-.012-.357l-7.018-11.577a.65.65 0 0 0-.561-.28"/><path fill="#E0C26E" d="M232.803 261.003c1.029-3.361 5.988-5.322 10.012-5.135l1.778 3.081-11.51 3.922z"/><path fill="#4781FF" d="m240.569 274.821-7.486-11.951 13.662-4.668a.65.65 0 0 1 .561.28l7.018 11.577a.38.38 0 0 1 .012.357.39.39 0 0 1-.293.204z"/><path fill="#FFEB9E" d="m222.604 258.949.748-1.12c.143-.203.336-.364.562-.467 4.023-1.12 7.766 1.681 8.889 3.641 2.713-3.174 8.889-5.042 12.538-3.828.187 0 .281.094.374.28l.562.934-13.194 4.482z"/><path fill="url(#h)" d="M226.066 274.168c.467 8.589.561 12.978.374 15.592s-.655 4.948 2.152 4.668 4.024-1.307 5.614-3.641c1.591-2.334 2.152-13.351 2.059-17.74-.094-4.388-2.339-6.722-5.895-6.348-3.556.373-4.492 2.894-4.304 7.469"/><path fill="#FFF7D4" d="M226.44 281.357c.093 4.108.093 6.629 0 8.403-.094 1.774-.655 4.948 2.152 4.668s4.024-1.307 5.614-3.641c1.591-2.334 1.404-5.135 1.778-9.057-3.088-2.334-7.486-1.96-9.544-.373"/><path fill="#1A2D3B" d="M228.592 294.428c2.901-.28 4.024-1.307 5.614-3.641q.245-.394.375-.84a1.13 1.13 0 0 0-1.03.28c-2.152 1.96-6.456 2.054-7.205 0-.093 2.427-.374 4.388 2.246 4.201"/><path fill="#FC5199" d="M234.955 283.317c.468.094.468.561.748.561a8 8 0 0 1 .188-1.494c-3.837-1.494-6.831-1.681-9.451 0v.84a9.46 9.46 0 0 1 8.515.093"/><path fill="url(#i)" d="M249.271 284.718a5.71 5.71 0 0 0 4.652-2.92 5.69 5.69 0 0 0 .027-5.483c-2.995-5.789-6.738-10.737-11.603-10.083-4.866.653-6.363 4.948-8.515 22.781a5.6 5.6 0 0 1-1.778 3.454q-.678.692-1.216 1.494c-.842 1.307 5.801-.093 10.386-2.054a1.88 1.88 0 0 0 .936-1.12c1.59-6.163 1.59-6.629 1.59-6.629 1.819.357 3.667.545 5.521.56"/><path fill="#9B28AB" d="M246.839 273.514a.48.48 0 0 0-.422.021.47.47 0 0 0-.233.352c-.187 1.027-.936 5.229-1.217 6.163-.281.933-1.029 4.108-1.029 4.108l.748.186a58.5 58.5 0 0 0 2.153-9.523 1.5 1.5 0 0 0 0-1.307"/><path fill="#2F4E75" d="M253.949 276.315c-1.684-3.268-3.649-6.349-5.988-8.216 2.246 2.334 1.31 8.776-2.994 11.951l-1.029 4.108a27.3 27.3 0 0 0 5.333.56 5.71 5.71 0 0 0 4.652-2.919 5.68 5.68 0 0 0 .026-5.484"/><path fill="#9E2FAD" d="m255.353 256.802-1.965.373.374 5.229-6.269-.374c-4.865-.28-4.772 2.241-2.152 3.641 2.62 1.401 11.603 5.509 14.971 3.642s1.123-7.189-4.959-12.511m-26.668 6.815c-.467-.653-1.029-1.027-2.526-.84s-3.93 1.027-4.678 2.334c-.749 1.307-.188 5.415 5.52 1.961 2.433-1.494 2.246-2.614 1.684-3.455"/><path fill="#E0C26E" d="m232.335 262.684.748.186.656-.186-.936-.841z"/><path fill="#FFFAE6" d="M234.955 280.05c-.374 2.52-.749 5.508-1.217 8.963a4.3 4.3 0 0 1-.488 1.656 4.3 4.3 0 0 1-1.102 1.331 3.65 3.65 0 0 0-1.591 2.241c-.374 1.494 5.989-.28 10.667-2.241a1.77 1.77 0 0 0 1.029-1.12l2.433-9.803a10.12 10.12 0 0 0-5.895-1.961 7.8 7.8 0 0 0-3.836.934"/><path fill="#FC5199" d="M234.768 281.357a10.97 10.97 0 0 1 9.637 1.214l-.28.933c-2.34-1.12-6.176-2.334-9.544-1.12z"/><path fill="#1A2D3B" d="M233.083 290.973h-.093a3.3 3.3 0 0 1-.936 1.027c-.842.747-1.59 1.214-1.684 2.334s6.176-.373 10.854-2.334a1.77 1.77 0 0 0 1.029-1.12q.121-.718.375-1.401a13.78 13.78 0 0 1-9.545 1.494"/><path fill="#2D415C" d="m246.09 279.023-1.123 1.027c-.187.934-1.029 4.108-1.029 4.108l.748.187a40 40 0 0 0 1.404-5.322m5.801-6.723h-.374a27 27 0 0 1 2.152 3.642l.843-.467a9.5 9.5 0 0 0-2.621-3.175"/><path fill="#fff" d="m255.353 256.802-1.965.373-1.591 4.762 1.965.467h1.778a37 37 0 0 1 3.556-2.334 16.5 16.5 0 0 0-3.743-3.268"/><path fill="#8C1C9C" d="M255.54 262.497h2.153c.936.093.842-.747 0-.747l-1.498.187z"/><path fill="#202A40" d="M173.198 298.443c.094-1.307.375-3.735.375-4.669s1.123-1.493 1.123-.466-.187 2.801-.374 4.575zm20.961-7.283c-.375-1.12-1.124 0-1.124 1.214s.094 2.707 0 5.041l1.217-.56a15.6 15.6 0 0 0-.093-5.695"/><path fill="#BF9A5D" d="M193.036 285.465a1.03 1.03 0 0 1-.843-.467c-1.777-2.614-3.555-5.228-5.427-7.749a1.125 1.125 0 0 1 .188-1.401 1.03 1.03 0 0 1 1.403.28 126 126 0 0 1 5.521 7.75 1.024 1.024 0 0 1-.281 1.4z"/><path fill="#FFDB9E" d="M207.164 252.974c-3.742-1.401-8.982-2.054-16.468-1.587s-10.761 1.213-14.223 2.614c-4.585 10.27-3.649 18.02-.093 24.275a34.2 34.2 0 0 0 16.281 2.614c5.24-.28 10.293-.933 13.755-2.427 3.275-9.337 4.023-19.98.748-25.489"/><path fill="#F0B576" d="m182.556 264.738-5.708-.56c-.281-.094-.468-.281-.468-.467a17.2 17.2 0 0 1 .561-4.015c.094-.187.375-.373.562-.28s.468.28.374.56a13.3 13.3 0 0 0-.468 3.268l4.679.467c.074-1.205.294-2.396.655-3.548 0-.187.28-.374.561-.28a.46.46 0 0 1 .307.2.46.46 0 0 1 .067.36 17 17 0 0 0-.655 3.828c0 .187 0 .28-.187.373zm3.368 15.592a.47.47 0 0 1-.468-.467c-1.59-14.192.094-19.327 2.807-25.396a.51.51 0 0 1 .655-.28.5.5 0 0 1 .281.654c-2.713 5.975-4.304 10.924-2.807 24.928a.56.56 0 0 1-.468.561"/><path fill="#0E2369" d="M167.584 229.353c.187 4.668 11.884 5.415 11.884 5.415l1.123-4.202z"/><path fill="#1839AD" d="m196.883 222.999.02-.092a.934.934 0 0 0-.721-1.107l-2.59-.549a.935.935 0 0 0-1.11.719l-.019.091a.933.933 0 0 0 .72 1.107l2.591.55a.935.935 0 0 0 1.109-.719"/><path fill="#63A6FF" d="M176.567 245.785a5.14 5.14 0 0 0 5.146-5.135 5.14 5.14 0 0 0-5.146-5.135 5.14 5.14 0 0 0-5.146 5.135 5.14 5.14 0 0 0 5.146 5.135"/><path fill="#365DEC" d="M190.79 255.495c9.147 0 16.562-7.399 16.562-16.526s-7.415-16.526-16.562-16.526-16.562 7.399-16.562 16.526 7.415 16.526 16.562 16.526"/><path fill="#1839AD" d="M181.62 225.244a16.5 16.5 0 0 0-4.98 5.167 16.5 16.5 0 0 0-2.319 6.784c13.381.467 23.019-4.108 24.89-5.882s-9.919-4.202-17.591-6.069m3.649 20.26h-.187a3.18 3.18 0 0 1-2.714-2.147.837.837 0 0 1 .468-1.027.94.94 0 0 1 1.029.467 1.68 1.68 0 0 0 1.31 1.214 2.34 2.34 0 0 0 1.872-1.307.75.75 0 0 1 .456-.353.77.77 0 0 1 .573.072.75.75 0 0 1 .354.456.74.74 0 0 1-.073.571 3.65 3.65 0 0 1-3.088 2.054"/><path fill="#4293FF" d="M205.574 245.785c3.1 0 5.614-2.508 5.614-5.602a5.61 5.61 0 0 0-5.614-5.602c-3.101 0-5.615 2.508-5.615 5.602s2.514 5.602 5.615 5.602"/><path fill="#66A8FF" d="M210.412 240.487c.178-1.952-.72-3.629-2.007-3.745s-2.474 1.37-2.652 3.321.721 3.628 2.008 3.745 2.473-1.37 2.651-3.321"/><path fill="url(#j)" d="M190.883 222.163a16.21 16.21 0 0 0-13.755 7.283c6.27.56 25.358 2.894 29.007 3.361-2.433-5.976-8.328-10.644-15.252-10.644"/><path fill="#0E2369" d="M197.808 233.367h-.188c-.093 0-11.696-1.681-29.287-3.081a.85.85 0 0 1-.722-.604.8.8 0 0 1-.027-.33.748.748 0 0 1 .936-.747c17.591 1.401 29.288 3.081 29.381 3.081a1.03 1.03 0 0 1 .749 1.027.93.93 0 0 1-.842.654"/><path fill="#13212B" d="M181.339 239.809h-.281a2.07 2.07 0 0 0-2.058 0 .74.74 0 0 1-.596.037.8.8 0 0 1-.26-.16.8.8 0 0 1-.173-.25.75.75 0 0 1-.076-.572.74.74 0 0 1 .356-.455 3.75 3.75 0 0 1 3.462 0 .75.75 0 0 1 .411.432.75.75 0 0 1-.037.595.94.94 0 0 1-.748.373m10.854 0h-.374a1.87 1.87 0 0 0-1.965 0 .75.75 0 0 1-1.029-.28.74.74 0 0 1-.166-.603.74.74 0 0 1 .353-.517 3.46 3.46 0 0 1 3.555 0 .93.93 0 0 1 .281 1.12.75.75 0 0 1-.655.28"/><path fill="#CCBDFF" d="M187.819 227.385c.903-.772 1.171-1.937.599-2.603-.572-.665-1.767-.579-2.67.193-.902.772-1.17 1.937-.599 2.603.572.666 1.767.579 2.67-.193"/><path fill="#365DEC" d="M207.258 252.974c-4.866-.094-7.673 6.535-7.953 15.685 0 0-7.673 1.027-12.445 2.147-4.772 1.121-6.176 3.922-5.895 6.256s2.339 4.668 8.795 4.668h2.153l4.023-.373c13.848-1.681 20.211-8.497 19.743-16.152-.28-5.322-2.245-9.804-8.421-12.231"/><path fill="#BF9A5D" d="M185.924 275.475a1.12 1.12 0 0 1-.842-.373l-3.556-4.482a.93.93 0 0 1-.092-1.117 1 1 0 0 1 .279-.284 1.03 1.03 0 0 1 1.404.094c1.216 1.494 2.433 2.988 3.556 4.575a.93.93 0 0 1 .227.743.93.93 0 0 1-.415.657z"/><path fill="#365DEC" d="M185.83 265.111c-1.497-1.4-5.333-1.587-10.854.187a31.6 31.6 0 0 1 1.872-11.484c-9.451 2.801-14.223 12.044-11.322 18.206 2.9 6.162 9.731 4.575 14.784 2.521 9.263-3.921 7.86-7.376 5.52-9.43"/><path fill="#BF9A5D" d="M179.28 267.352a1.02 1.02 0 0 1-.748-.28 138.76 138.76 0 0 0-52.212-37.533 1.025 1.025 0 0 1-.562-1.307 1.124 1.124 0 0 1 1.31-.56 140.06 140.06 0 0 1 52.961 38.093 1.025 1.025 0 0 1-.094 1.4.93.93 0 0 1-.655.187"/><path fill="#1A3EBD" d="m199.304 268.659 3.088-.373c1.404-.093.936-1.494 0-1.214l-3.088.747zm-29.006-3.174c-1.778.186-1.778 2.054-.187 1.4a33 33 0 0 1 4.865-1.587v-.374z"/><path fill="#F0B576" d="M196.966 266.605h-.094l-6.643-.747a.466.466 0 0 1-.375-.467 13.7 13.7 0 0 1 .468-3.921.65.65 0 0 1 .655-.373.56.56 0 0 1 .281.653 12.8 12.8 0 0 0-.468 3.175l5.708.653c.07-1.198.258-2.386.561-3.548a.47.47 0 0 1 .263-.291.48.48 0 0 1 .392.011c.187 0 .374.28.281.56a19 19 0 0 0-.562 3.828.74.74 0 0 1-.187.374z"/><path fill="#fff" d="M127.63 352.688a.28.28 0 0 1-.199-.082.28.28 0 0 1-.082-.198V229.912c0-.186.094-.28.187-.28h.281c4.491 6.909 10.948 5.416 11.041 5.416.094 0 .187 0 .187.186 2.714 6.816 11.229 8.963 14.317 9.15l.187.187c2.994 9.243 13.568 13.538 17.965 14.938.094.094.187.187.094.374a.188.188 0 0 1-.281.093c-4.398-1.4-15.065-5.789-18.152-15.125-3.275-.28-11.603-2.521-14.41-9.337-1.123.187-6.737.841-10.948-4.948v121.842c0 .187-.094.28-.187.28"/><path fill="#fff" d="M127.63 357.636c1.602 0 2.9-1.296 2.9-2.894a2.896 2.896 0 0 0-2.9-2.894 2.897 2.897 0 0 0-2.901 2.894 2.9 2.9 0 0 0 2.901 2.894"/><path fill="#FA4E89" d="M124.916 353.715h5.427l-.561-.934h-4.304a1.96 1.96 0 0 0-.562.934"/><path fill="#43506B" d="M178.064 314.968c7.299.56 11.79-.56 14.41-2.521.094-1.493.094-2.801.187-4.108-3.649 1.121-8.421 1.774-14.784 1.961 0 .84.094 1.681.094 2.521s.093.934.093 1.4c.015.253-.016.506-.093.747zm-20.211-9.056c-.187 1.12-.281 2.241-.374 3.455-.094 1.213-.094.84-.187 1.213a92 92 0 0 0 14.503 1.308l.468-4.482a132 132 0 0 1-14.41-1.494"/></g><defs><linearGradient id="b" x1="254.314" x2="209.917" y1="242.255" y2="177.341" gradientUnits="userSpaceOnUse"><stop offset=".03" stop-color="#fff"/><stop offset="1" stop-color="#CCBDFF"/></linearGradient><linearGradient id="c" x1="106.907" x2="12.908" y1="322.629" y2="322.629" gradientUnits="userSpaceOnUse"><stop stop-color="#fff"/><stop offset="1" stop-color="#CCBDFF"/></linearGradient><linearGradient id="d" x1="114.648" x2="140.653" y1="265.639" y2="240.758" gradientUnits="userSpaceOnUse"><stop stop-color="#fff"/><stop offset="1" stop-color="#CCBDFF"/></linearGradient><linearGradient id="e" x1="330.799" x2="335.383" y1="164.51" y2="190.731" gradientUnits="userSpaceOnUse"><stop offset=".26" stop-color="#56BAD6"/><stop offset="1" stop-color="#348CB5"/></linearGradient><linearGradient id="f" x1="246.155" x2="243.089" y1="227.877" y2="216.782" gradientUnits="userSpaceOnUse"><stop stop-color="#9E2FAD"/><stop offset="1" stop-color="#922DA8"/></linearGradient><linearGradient id="g" x1="256.391" x2="240.629" y1="256.162" y2="236.764" gradientUnits="userSpaceOnUse"><stop stop-color="#9E2FAD"/><stop offset="1" stop-color="#AE3DC6"/></linearGradient><linearGradient id="h" x1="11577.5" x2="11342" y1="8821.36" y2="8621.36" gradientUnits="userSpaceOnUse"><stop stop-color="#9E2FAD"/><stop offset="1" stop-color="#AE3DC6"/></linearGradient><linearGradient id="i" x1="27149.5" x2="26970.4" y1="8883.62" y2="8829.24" gradientUnits="userSpaceOnUse"><stop stop-color="#9E2FAD"/><stop offset="1" stop-color="#AE3DC6"/></linearGradient><linearGradient id="j" x1="177.147" x2="206.154" y1="227.466" y2="227.466" gradientUnits="userSpaceOnUse"><stop stop-color="#9E2FAD"/><stop offset="1" stop-color="#B84DCF"/></linearGradient><clipPath id="a"><path fill="#fff" d="M0 0h372.316v368H0z"/></clipPath></defs></svg>